<?xml version="1.0" encoding="utf-8"?>
<!-- Generator: Adobe Illustrator 18.0.0, SVG Export Plug-In . SVG Version: 6.00 Build 0)  -->
<!DOCTYPE svg PUBLIC "-//W3C//DTD SVG 1.1//EN" "http://www.w3.org/Graphics/SVG/1.1/DTD/svg11.dtd">
<svg version="1.1" id="Layer_1" xmlns="http://www.w3.org/2000/svg" xmlns:xlink="http://www.w3.org/1999/xlink" x="0px" y="0px"
	 viewBox="29 244.9 536 352" enable-background="new 29 244.9 536 352" xml:space="preserve">
<g>
	<path fill="#2A7EC2" d="M73.5,546.7c4.1,0,7.8,0,11.8,0c0-1.2,0-2.2,0-3.2c0-10.1,0-20.3,0-30.5c0-1.9-0.5-3.2-2.1-4.4
		c-4.4-3.3-5.8-7.9-4.6-13.2c1.1-4.8,4-7.9,8.8-9.3c5.2-1.5,10.7,1.3,13.3,6.3c2.7,5.5,1.5,12.3-3.4,15.8c-1.8,1.3-2.3,2.7-2.3,4.9
		c0.1,10.1,0,20.1,0,30.2c0,1,0,1.9,0,3.2c4.1,0,8,0,12.2,0c0-5.6,0.1-11.1-0.1-16.6c0-0.7-1.1-1.6-1.8-2.2
		c-6.1-4.8-6.9-13.8-1.7-19.2c3.9-4.1,9.9-4.9,14.5-1.9c5,3.3,7.3,10,4.8,15.5c-1,2.3-3.2,4-4.8,6.1c-0.5,0.7-1.3,1.5-1.3,2.2
		c-0.1,5.4-0.1,10.6-0.1,16.2c21.7,0,43.1,0,64.9,0c0-4.1,0.1-8.2-0.1-12.2c0-1-1.1-1.8-1.8-2.7c-27.5-29.2-54.9-58.4-82.5-87.6
		c-10.2-10.8-20.3-21.8-30.5-32.8c-1-1.1-1.9-1.7-3.7-1.3c-5.2,1.1-10-1.2-12.7-6c-2.8-5-1.9-11.2,1.9-15.4c3.5-3.7,8.7-4.6,13-2.6
		c4.8,2.3,8,7.9,6.9,13.2c-0.6,2.7,0.4,4.3,2.1,6.1c9.9,10.4,19.6,20.7,29.4,31.2c25.1,26.8,50.3,53.6,75.4,80.4
		c0.6,0.6,1.2,1.3,1.8,2.1c0.2-0.1,0.5-0.2,0.7-0.2c0-4,0.1-8.2-0.1-12.2c0-0.9-1-1.7-1.6-2.4c-30.6-32.5-61.3-65.1-91.9-97.6
		c-9.6-10.2-19.1-20.3-28.9-30.5c-0.7-0.7-2.2-1.3-3.2-1.2c-5.7,0.7-10.5-1.5-13-6.5c-2.6-5.1-1.6-11.3,2.4-15.2
		c3.7-3.5,8.8-4.3,13.2-2.1c4.9,2.4,7.7,8.2,6.5,13.6c-0.5,2.2,0.2,3.4,1.6,4.9c40.9,43,81.6,86.1,122.3,129.3
		c1.8,1.9,2.6,3.8,2.6,6.3c-0.1,12.7,0,25.3,0,38c0,1,0,2.1,0,3.3c2.8,0,5.5,0,8.4,0c0-1.1,0-2.2,0-3.2c0-14.5,0-29.1,0-43.6
		c0-1.9-0.5-3.3-1.8-4.8c-22.7-24-45.3-48-67.9-72.1c-26.9-28.6-53.7-57.3-80.7-85.9c-1.3-1.5-2.4-2.1-4.6-1.5
		c-6.3,2.1-13-2.4-14.4-9c-1.6-7.3,3-14.5,10.1-15.5c6.5-0.9,13.3,4.3,13.2,11.1c-0.1,4.9,2.1,7.7,5,10.7c3.3,3.3,6.5,6.7,10,10.5
		c0.1-1.1,0.2-1.7,0.2-2.4c0-10,0-20,0.1-30c0-1.3,0.7-3.2,1.6-4.1c16.1-17.4,32.4-34.7,48.7-51.9c0.7-0.9,2.2-1.5,3.3-1.5
		c17.3-0.1,34.7-0.1,52,0c1.3,0,3,0.9,4,1.8c10.4,10.7,20.5,21.7,30.7,32.5c1,1.1,1.8,1.6,3.5,1.3c6.8-1.5,13.2,3.3,14.1,10.2
		c1.1,7.4-3.8,14-10.8,14.6c-6.6,0.6-12.4-5-12.8-12.1c0-0.2-0.1-0.4,0-0.6c1.7-4.4-1.2-6.9-3.9-9.7c-8.4-8.8-16.6-17.7-25-26.4
		c-1-1-2.7-1.6-4-1.7c-3.2-0.2-6.3-0.1-9.9-0.1c0.7,0.9,1.1,1.5,1.6,1.9c18,19.2,36.2,38.4,54.2,57.6c1.1,1.2,1.9,1.7,3.8,1.3
		c5.2-1.1,10,1.5,12.5,6.2c2.7,5,1.7,11.2-2.2,15.2c-3.5,3.5-8.8,4.5-13.2,2.3c-4.8-2.4-7.8-7.9-6.7-13.3c0.5-2.4-0.2-3.9-1.8-5.6
		c-20.1-21.2-40.1-42.4-60.1-63.7c-1.5-1.6-2.9-2.3-5-2.2c-3,0.2-6.1,0-9.6,0c0.7,1,1.2,1.6,1.8,2.2c30.3,32.3,60.7,64.5,91.1,96.7
		c1,1.1,1.8,1.7,3.5,1.1c6.8-2.2,13.6,2.2,15,9.5c1.5,7.2-3.4,14.3-10.2,15.1s-13.5-4.8-13.2-12.1c0.2-3.8-1.3-6-3.7-8.4
		c-23.1-24.5-46.2-49-69.2-73.5c-0.6-0.6-1.1-1.3-1.7-2.1c-0.7,0.7-1.3,1.1-1.8,1.7c-5.7,6.1-11.5,12.1-17.1,18.2
		c-1,1.1-1.6,2.8-1.6,4.1c-0.1,17.2-0.1,34.4,0,51.5c0,1.3,0.6,2.9,1.6,3.9c31.8,34,63.7,67.9,95.8,101.6c1.9,2.1,2.8,4,2.8,6.8
		c-0.1,23.9,0,47.8-0.1,71.6c0,1.3-0.6,3.2-1.6,4.1c-12.1,12.9-24.1,25.7-36.2,38.6c-1.2,1.3-2.4,1.9-4.3,1.9
		c-15.1-0.1-30.2,0-45.3-0.1c-1.5,0-2.9-0.5-4.1-1.1c-23-13.3-46.1-26.6-69.1-39.7c-2.1-1.2-2.8-2.4-2.8-4.8
		c0.1-19.1,0-38.3,0.1-57.4c0-1.9-0.4-3.2-2.1-4.4c-4.8-3.7-6-10.2-3.3-15.7c2.6-5.1,7.9-7.9,13.2-6.5c5.1,1.3,8,4.9,9,10
		c1,5.2-0.9,9.6-5.1,12.7c-1.7,1.2-2.2,2.3-2.2,4.3c0.1,16.6,0,33.1,0,49.8C73.5,544.5,73.5,545.5,73.5,546.7z M135.4,279.4
		c-10.8,11.6-21.4,22.8-32,34.1c-0.7,0.7-1,2.2-1,3.3c0,20.1-0.1,40.1,0,60.2c0,1.3,0.7,3.2,1.6,4.1c18.4,19.7,36.9,39.5,55.4,59.2
		c16.1,17.1,32,34.1,48.1,51.2c0.9,0.9,1.6,2.2,1.6,3.3c0.1,16.3,0.1,32.7,0,49c0,1,0,2.1,0,3.2c2.9,0,5.5,0,8.4,0
		c0-1.1,0-2.2,0-3.2c0-19.9,0-39.7,0-59.6c0-2.6-0.6-4.3-2.4-6.2c-32-34-64.1-68-96-102c-0.9-0.9-1.6-2.3-1.6-3.5
		c-0.1-20.1-0.1-40.3,0-60.4c0-1.3,0.7-2.9,1.6-3.9c3.7-4.1,7.6-8,11.3-12.1c3.4-3.5,6.7-7.2,10.1-10.8
		C138.9,283.2,137.3,281.3,135.4,279.4z M122.7,265.9c-0.6,0.5-0.9,0.7-1.1,1c-14,14.9-28,29.7-41.9,44.6c-0.7,0.9-1.2,2.3-1.2,3.4
		c-0.1,10.8,0.1,21.8-0.1,32.7c-0.1,4.3,0.9,7.6,4.1,10.5c3.5,3.2,6.6,6.9,10.5,11c0-1.7,0-2.6,0-3.5c0-17.5,0-35.1,0-52.5
		c0-2.1,0.5-3.5,1.9-5c10.6-11.1,21.1-22.4,31.7-33.5c0.7-0.7,1.5-1.6,2.2-2.4C126.6,270,124.8,268,122.7,265.9z M210.9,557.4
		c-40.3,0-80,0-120.5,0c5.5,3.2,10.2,6,15.1,8.8c0.7,0.4,1.6,0.6,2.3,0.6c30.7,0,61.5,0,92.2,0c1,0,2.1-0.4,2.7-1
		C205.5,563.1,208.1,560.4,210.9,557.4z M125.4,577c-0.1,0.1-0.1,0.4-0.2,0.5c5.1,2.9,10.2,5.8,15.4,8.8c0.5,0.2,1.2,0.1,1.9,0.1
		c13,0,26.1,0,39.1,0c0.7,0,1.7,0.1,2.2-0.4c2.8-2.8,5.6-5.7,8.8-9C169.6,577,147.4,577,125.4,577z M48.2,323.6
		c0-3.8-2.8-6.9-6.2-6.9c-3.5,0-6.3,3.3-6.2,7.2c0.1,3.8,2.9,6.8,6.3,6.7C45.8,330.5,48.2,327.7,48.2,323.6z M240.3,375.6
		c0-3.9-2.8-6.9-6.2-6.9c-3.7,0-6.2,2.9-6.2,6.9c0,3.9,2.9,7.1,6.5,7.1C237.7,382.6,240.4,379.4,240.3,375.6z M75.4,479.1
		c0.1-3.8-2.7-6.9-6.1-7.1c-3.5-0.1-6.5,3-6.5,6.9c0,3.5,3.2,7.3,6.1,7.3C72,486.4,75.3,482.7,75.4,479.1z M118.1,517.7
		c0-3.8-2.7-6.9-6.1-7.1c-3.5-0.1-6.5,2.9-6.5,6.9c0,3.7,3.3,7.4,6.3,7.3C115,524.9,118.1,521.2,118.1,517.7z M67,397.8
		c-0.1-3.8-2.8-6.8-6.3-6.8c-3.4,0-6.2,3.2-6.2,6.9c0,3.9,2.9,7.2,6.5,6.9C64.6,404.7,67,401.8,67,397.8z M228.8,337
		c0-3.8-2.7-6.9-6.1-7.1c-3.8-0.1-6.3,2.6-6.3,6.7c-0.1,4,2.7,7.2,6.2,7.2C225.9,343.9,228.8,340.8,228.8,337z M47.4,362.5
		c0,3.9,2.7,6.9,6.1,6.9c3.7,0.1,6.3-2.7,6.3-6.8c0.1-3.9-2.8-7.2-6.3-7.1C50.1,355.5,47.4,358.6,47.4,362.5z M83.8,498.6
		c0,3.7,3.2,7.4,6.3,7.3c3.2-0.1,6.2-3.9,6.2-7.6c-0.1-3.8-2.9-6.8-6.3-6.8C86.5,491.6,83.8,494.7,83.8,498.6z M209.2,301.4
		c0,3.9,2.7,6.9,6.1,6.9c3.5,0.1,6.3-3,6.3-7.1c0-3.9-2.8-6.8-6.2-6.8C211.6,294.6,209.2,297.3,209.2,301.4z"/>
	<path fill="#2A7EC2" d="M316.6,586.9c4.1,0,7.7,0.1,11.2,0c0.9,0,1.9-0.6,2.6-1.2c20.7-20.6,41.3-41.2,61.9-61.9
		c0.6-0.6,1-2.2,0.7-3.2c-1.2-6.6,2.7-12.9,9.1-14.3s12.7,2.7,14.1,9.1c1.5,6.2-2.6,12.5-8.9,14c-1.3,0.4-2.9,0.6-4.1,0.1
		c-2.3-0.7-3.5,0.2-5.1,1.7c-17.7,17.7-35.3,35.3-53,53c-0.6,0.6-1.2,1.3-2.3,2.4c4.4,0,8.2,0.1,12.1-0.1c0.7,0,1.3-0.9,1.9-1.5
		c9.4-9.4,18.8-18.8,28.1-28c1.1-1.1,1.3-2.1,1-3.7c-1.1-5.4,1.3-10.5,6.1-12.9c4.6-2.4,10.2-1.6,13.9,2.2c3.7,3.7,4.5,9.1,2.2,13.6
		c-2.4,4.8-7.6,7.3-12.8,6.2c-1.7-0.4-2.7,0.2-3.9,1.3c-10.1,10.2-20.2,20.3-30.5,30.5c-1,1-2.7,1.7-4,1.7
		c-17.2,0.1-34.4,0.1-51.5,0c-1.6,0-3.4-0.9-4.6-1.9c-16.2-16-32.3-32.2-48.2-48.2c-0.9-1-1.6-2.6-1.6-3.9c-0.1-37.3-0.1-74.6,0-112
		c0-1.2,0.5-2.8,1.3-3.8c22.5-24.4,45.1-48.7,67.7-73c0.2-0.2,0.5-0.4,1-0.7c2.1,2.3,4.3,4.5,6.6,6.9c-0.6,0.7-1.1,1.3-1.6,1.9
		c-5,5.4-10.1,10.7-15,16.2c-0.9,1-1.5,2.4-1.5,3.7c-0.1,5.7-0.1,11.6-0.1,17.5c1.2,0.1,2.1,0.1,2.9,0.1c22.7,0,45.3,0,68,0
		c1.7,0,2.8-0.4,3.8-1.9c2.9-4.8,8-6.8,12.9-5.4c5.1,1.6,8.8,6.6,8.8,12.3c0,5.5-3.5,10.7-8.5,12.3c-4.9,1.6-9.9-0.4-13.2-4.9
		c-0.6-0.9-1.9-1.8-2.9-1.9c-23.4-0.1-46.8-0.1-70.2-0.1c-0.5,0-0.9,0.1-1.5,0.1c0,3,0,6,0,9.1c0.9,0,1.8,0.1,2.7,0.1
		c14.5,0,28.9,0,43.4,0c1.1,0,2.6-0.6,3.2-1.3c4-5.8,9.6-7.8,15.1-5.1c5.7,2.8,8.5,9.7,6.3,16c-1.6,4.5-4.6,7.7-9.6,8.4
		c-5,0.7-8.7-1.5-11.5-5.4c-0.6-0.9-1.8-1.7-2.7-1.8c-15.4-0.1-30.6-0.1-45.9,0c-0.2,0-0.5,0.1-1,0.2c0,3,0,6.2,0,9.7
		c3.4,0,6.7,0,10,0c2.6,0,5-0.1,7.6,0c4.1,0.2,7.6,0.2,10.5-4c2.8-4.3,8.8-4.6,13.2-2.2c5,2.7,7.6,8.7,6.3,14.4
		c-1.1,5-5,8.9-9.6,9.7c-4.6,0.9-9-1.3-12.1-5.8c-0.5-0.7-1.3-1.6-1.9-1.6c-7.9-0.1-15.8-0.1-23.9-0.1c0,1.2-0.1,2.1-0.1,3
		c0,28,0,56.2,0.1,84.2c0,1.5,0.7,3.3,1.8,4.4c5.4,5.6,11,11.1,16.6,16.7c0.6,0.6,1.2,1.1,1.9,1.8c5-5,9.7-9.9,14.6-14.7
		c19.4-19.4,38.7-38.7,58.2-58.1c1.3-1.3,2.1-2.6,1.8-4.5c-0.6-5.2,2.4-10,7.3-12.1c4.9-1.9,10.4-0.6,13.6,3.5
		c3.3,3.9,3.5,9.5,0.9,13.9c-2.9,4.5-8,6.6-13.4,5c-1.5-0.4-2.3-0.2-3.4,0.9c-30.6,30.6-61.2,61.3-91.7,91.9
		C317.6,585.8,317.4,586.2,316.6,586.9z M300,389.9c-4.9,5.2-9.4,9.9-13.5,14.7c-1,1.1-1.6,2.7-1.6,4.1c-0.1,42.6-0.1,85.4,0,128
		c0,1.3,0.7,3,1.7,4c9.7,10,19.7,19.9,29.6,29.7c0.5,0.5,1.1,0.9,1.3,1.1c1.9-1.8,3.7-3.4,5.6-5.1c-6.9-6.9-13.8-13.9-20.7-20.6
		c-1.7-1.6-2.3-3.3-2.3-5.6c0.1-48.9,0-97.7,0-146.6C300,392.8,300,391.8,300,389.9z M275.1,416.7c-4.6,5-8.8,9.3-12.7,13.8
		c-1,1.1-1.7,2.9-1.7,4.4c-0.1,34.4,0,68.8-0.1,103.2c0,1.9,0.5,3.3,1.9,4.6c13.5,13.5,27,27,40.6,40.4c0.6,0.6,1.2,1.1,1.6,1.5
		c2.1-1.9,4-3.8,6.6-6.1c-1-0.7-1.9-1.2-2.7-1.9c-10.5-10.4-20.8-20.8-31.3-31.2c-1.6-1.6-2.2-3.2-2.2-5.4c0-40,0-79.8,0-119.8
		C275.1,419.4,275.1,418.4,275.1,416.7z M400.5,404.4c0-4-2.8-7.2-6.3-7.2c-3.2,0-6.6,3.7-6.7,7.1c-0.1,3.2,3.5,7.1,6.7,7.2
		C397.5,411.6,400.5,408.4,400.5,404.4z M375.5,424.2c0-4-2.9-7.1-6.5-6.9c-3.2,0.1-6.6,3.9-6.6,7.2c0.1,3.4,3.5,6.9,6.8,6.9
		C372.8,431.4,375.6,428.3,375.5,424.2z M352,444.7c-0.1-4-2.9-7.2-6.5-7.1c-3.2,0.1-6.7,4-6.6,7.3c0.1,3.5,3.5,7.1,6.8,7.1
		C349.2,452,352,448.6,352,444.7z M405,511.7c-3.5,0-6.2,2.7-6.3,6.1c0,3.7,2.6,6.3,6.2,6.3c3.4,0,6.2-2.8,6.2-6.2
		C411.1,514.5,408.4,511.8,405,511.7z M422.6,481.6c0-3.5-2.6-6.2-6.1-6.3c-3.4,0-6.3,2.7-6.3,6.1c-0.1,3.7,2.4,6.3,6.2,6.3
		C419.8,487.8,422.5,485,422.6,481.6z M397.7,557.5c3.4,0,6.2-2.7,6.3-6.1c0.1-3.4-2.7-6.2-6.1-6.3s-6.2,2.7-6.3,6.1
		C391.5,555,393.9,557.4,397.7,557.5z"/>
	<path fill="#2A7EC2" d="M495.5,556.2c1.9-1.8,3.7-3.4,5.7-5.5c-1.8-1.7-3.4-3.3-5.1-4.8c-1.7-1.5-2.3-3.2-2.3-5.4
		c0-52,0-104,0.1-156.1c0-2.1-0.4-3.5-2.3-4.9c-5.1-3.8-6.3-11.1-3.2-16.6c2.9-5.1,8.9-7.4,14.1-5.4c4.4,1.8,7.1,5.1,7.7,9.9
		c0.7,5-0.9,9.3-5,12.3c-1.5,1.1-1.9,2.1-1.9,3.9c0,51.2,0.1,102.3,0,153.5c0,3.7,2.8,4.8,4.6,7.1c1.8-1.7,3.4-3.2,5-4.6
		c4.4-4.1,8.8-8.3,13.3-12.4c2.2-2.1,4.1-3.8,3.8-7.6c-0.5-4.9,4.8-8.9,10-8.7c5.4,0.2,9.6,4.8,9.1,9.7c-0.4,5.2-5.5,9.4-10.8,8.4
		c-2.2-0.4-3.4,0.2-4.9,1.6c-6.6,6.3-13.3,12.5-19.7,18.6c3.5,3.5,7.1,7.1,10.6,10.6c6.9-6.5,14-13.2,21.1-20
		c0.5-0.5,0.5-1.7,0.5-2.6c-0.6-5.6,3.4-10.4,9-10.6c6-0.2,10.4,3.9,10.1,9.7c-0.1,5.1-5.2,9.3-10.7,8.4c-1.9-0.4-3.3,0.2-4.6,1.6
		c-16.7,15.8-33.5,31.6-50.3,47.4c-0.9,0.7-1.6,1.5-2.6,2.3c-0.9-0.7-1.5-1.3-2.2-2.1c-16-16-31.9-31.9-47.9-47.9
		c-1.3-1.3-1.8-2.8-1.8-4.6c0-42.3,0-84.7,0-127c0-1.9-0.5-3.2-2.1-4.4c-6-4.4-6.7-13.3-1.7-18.9c4.3-4.8,11.2-5.2,16.1-1.1
		c5.2,4.5,6,12.8,1.5,18.2c-0.2,0.2-0.5,0.6-0.7,0.9c-3.7,1.7-3.4,4.9-3.4,8.3c0.1,40.1,0.1,80.2,0,120.2c0,1.9,0.5,3.3,1.8,4.6
		c8.2,8,16.1,16.1,24.1,24.1c0.6,0.6,1.2,1.1,1.9,1.8c2.1-1.9,4-3.8,6.1-5.7c-5.8-5.8-11.5-11.6-17.3-17.3c-1.7-1.6-2.3-3.3-2.3-5.6
		c0.1-47,0-93.9,0.1-141c0-2.2-0.5-3.7-2.3-5.1c-4.9-3.5-6.1-10.4-3.3-15.8c2.6-5.1,8-7.8,13.3-6.3c4.9,1.3,7.8,4.8,8.8,9.5
		c1.1,5.2-0.5,9.7-4.8,12.9c-1.7,1.2-2.1,2.4-2.1,4.4c0,45.9,0,92,0,137.9c0,2.1,0.5,3.5,1.9,4.9
		C485.5,546.1,490.4,551.1,495.5,556.2z M456,400.4c0.1-3.8-2.7-6.9-6-7.1c-3.4-0.1-6.3,2.8-6.5,6.7c-0.1,3.8,3,7.8,6.2,7.7
		C452.9,407.5,455.9,403.9,456,400.4z M504.9,369.5c0-3.9-2.7-6.9-6.1-6.9c-3.5,0-6.3,3.2-6.3,7.1c0,3.5,3.2,7.2,6.2,7.3
		C501.6,377.1,504.9,373.2,504.9,369.5z M467.6,383.7c0,3.7,3.2,7.4,6.2,7.4c3.2,0,6.3-3.8,6.2-7.4c0-3.8-2.8-6.8-6.2-6.8
		C470.3,376.8,467.6,379.9,467.6,383.7z M498.7,584.3c1.9-1.8,3.9-3.7,5.4-5.1c-3.7-3.7-7.1-7.1-10.6-10.7c-1.7,1.6-3.7,3.4-5.5,5.2
		C491.6,577.3,495,580.7,498.7,584.3z M506.2,556.5c-1.7,1.6-3.4,3.2-4.9,4.6c3.7,3.7,7.1,7.1,10.6,10.6c1.6-1.5,3.3-3,4.9-4.6
		C513.3,563.6,509.9,560.2,506.2,556.5z M539.5,516.6c-2.2,0-4,1.6-4,3.4c0,2.1,1.8,3.5,4.1,3.5c2.2,0,3.9-1.7,3.9-3.5
		S541.7,516.6,539.5,516.6z M555.6,532.5c-2.2,0-3.9,1.5-4,3.4c0,2.2,1.6,3.5,4.1,3.4c2.2,0,3.9-1.6,3.9-3.5
		C559.6,534.1,557.8,532.5,555.6,532.5z"/>
	<path fill="#2A7EC2" d="M297.3,304c0,14.4,0,28.4,0,43c3.4-3.7,6.3-6.8,9.6-10.4c1.8,1.9,3.5,3.8,5.4,5.8
		c-18.6,20.1-37.2,40.1-55.7,60.1c-3.7-3-5.7-6-5.7-11c0.4-17.2,0.1-34.4,0.1-51.4c0-13.9,0.1-27.8,0.2-41.7c0-1.1,0.6-2.6,1.3-3.4
		c12.2-13.3,24.5-26.4,36.8-39.5c1-1.1,2.8-1.8,4.3-1.8c13.6-0.1,27.4-0.1,41.1,0c1.8,0,2.9-0.4,3.9-2.2c2.7-4.8,7.8-6.9,12.9-5.6
		c5.1,1.3,8.9,6.5,9,12.2c0.1,5.5-3.4,10.7-8.3,12.4c-4.9,1.7-10.1-0.1-13.2-4.8c-1-1.5-1.9-1.8-3.7-1.8c-12.8,0-25.6,0-38.4,0.1
		c-1.2,0-2.7,0.6-3.5,1.5c-2.4,2.3-4.8,5-7.4,7.8c1.2,0.1,2.1,0.1,2.8,0.1c26.2,0,52.4,0,78.6,0c1.2,0,2.8-0.6,3.4-1.5
		c4-5.6,9.9-7.4,15.4-4.6c5.6,2.9,8.2,10,5.8,16.1c-1.7,4.5-4.9,7.6-9.9,8c-5,0.6-8.8-1.7-11.2-5.8c-0.9-1.5-1.8-1.9-3.5-1.9
		c-29.6,0-59.3,0-88.9,0.1c-1.2,0-2.7,0.7-3.5,1.5c-2.6,2.4-4.9,5.1-7.6,8c1.2,0.1,1.8,0.2,2.6,0.2c43.5,0,86.9,0,130.4,0
		c1.6,0,2.7-0.4,3.7-1.8c3.3-4.6,8.4-6.2,13.3-4.4c5,1.8,8.4,7.2,8,12.8c-0.4,5.7-4.3,10.6-9.5,11.8c-5,1.1-10-1.2-12.7-6.1
		c-0.9-1.5-1.7-2.1-3.4-2.1c-33.5,0-66.9,0-100.4,0C299,303.9,298.2,303.9,297.3,304z M261.1,385.1c0.2,0.1,0.5,0.1,0.6,0.2
		c1.8-1.9,3.5-4,5.5-5.8c1.6-1.5,2.1-3,2.1-5.1c-0.1-22.4,0-44.7,0-67.1c0-1.1-0.1-2.2-0.1-3.2c-2.9,0-5.5,0-8,0
		C261.1,331.2,261.1,358.1,261.1,385.1z M279.1,366.6c2.6-2.7,4.8-4.9,6.6-7.2c1-1.2,1.8-3,1.8-4.6c0.1-16,0-31.9,0-47.8
		c0-1-0.1-1.9-0.1-2.9c-2.9,0-5.5,0-8.3,0C279.1,324.7,279.1,345.3,279.1,366.6z M420,299.4c0-4-2.8-7.2-6.3-7.1
		c-3,0.1-6.7,3.9-6.6,6.8c0.1,3.8,3.4,7.4,6.7,7.4C417.2,306.7,420,303.4,420,299.4z M355,258.3c0-4-2.8-7.2-6.3-7.1
		c-3.3,0-6.8,3.9-6.7,7.4c0.1,3.2,3.7,6.8,6.7,6.8C352.2,265.4,355,262.3,355,258.3z M387.6,278.9c0-4-2.7-7.2-6.2-7.2
		c-3.2,0-6.8,3.9-6.8,7.1c0,3.4,3.5,7.1,6.7,7.2C384.6,286.1,387.4,282.9,387.6,278.9z"/>
	<path fill="#2A7EC2" d="M445.1,295.8c3.2,0,6.2,0,9.4,0c0.1-0.9,0.2-1.6,0.2-2.3c0-3.8-0.1-7.4,0-11.2c0.1-2.8-0.4-4.9-2.9-6.8
		c-4.1-3-5.2-9-3.4-14c1.7-4.6,5.8-7.8,10.5-8c4.6-0.2,9,2.4,11.2,6.9c2.7,5.5,1.2,12.2-3.8,15.8c-1.7,1.2-2.1,2.4-2.1,4.4
		c0.1,4.8,0.1,9.5,0.1,14.3c0,0.1,0.1,0.4,0.2,0.7c3.5,0,7.1,0,11,0c0-14,0-27.8,0-41.8c1.1-0.1,1.9-0.2,2.7-0.2
		c7.3,0,14.7,0.1,22.1,0c2.4,0,2.9,0.7,2.9,3c-0.1,15.7,0,31.3,0,47c0,1.1-0.6,2.6-1.5,3.4c-15.4,15.5-30.7,30.8-46.1,46.1
		c-0.9,0.9-2.3,1.3-3.7,1.6c-2.3,0.2-4.6,0.1-7.1,0.1C445.1,334.9,445.1,315.6,445.1,295.8z M454.7,340.3c0.4-0.2,0.7-0.2,0.9-0.4
		c6.3-6.3,12.7-12.7,19-19c0.5-0.5,1-1.1,1-1.6c0.1-4.6,0-9.3,0-13.8c-7.2,0-14,0-21,0C454.7,317.1,454.7,328.7,454.7,340.3z
		 M485.3,263.4c0,15.5,0,30.8,0,47c2.4-2.6,4.4-4.8,6.5-6.7c1.5-1.3,2.1-2.8,2.1-4.9c-0.1-10.8,0-21.7,0-32.4c0-1,0-1.9,0-3
		C490.7,263.4,488.1,263.4,485.3,263.4z M465.6,266.1c0-3.9-2.8-6.9-6.2-6.9c-3.4,0-6.2,3.2-6.2,6.9c0,3.7,3.4,7.6,6.3,7.4
		C462.7,273.3,465.6,269.6,465.6,266.1z"/>
</g>
</svg>
