<?xml version="1.0" encoding="UTF-8" standalone="no"?>
<!DOCTYPE svg PUBLIC "-//W3C//DTD SVG 1.1//EN"
 "http://www.w3.org/Graphics/SVG/1.1/DTD/svg11.dtd">
<!-- Generated by graphviz version 2.36.0 (20140111.2315)
 -->
<!-- Title: controllers_diagram Pages: 1 -->
<svg width="545pt" height="596pt"
 viewBox="0.00 0.00 545.00 596.00" xmlns="http://www.w3.org/2000/svg" xmlns:xlink="http://www.w3.org/1999/xlink">
<g id="graph0" class="graph" transform="scale(1 1) rotate(0) translate(4 592)">
<title>controllers_diagram</title>
<polygon fill="white" stroke="none" points="-4,4 -4,-592 541,-592 541,4 -4,4"/>
<!-- _diagram_info -->
<g id="node1" class="node"><title>_diagram_info</title>
<text text-anchor="start" x="331" y="-63.6" font-family="Times,serif" font-size="13.00">Controllers diagram</text>
<text text-anchor="start" x="331" y="-49.6" font-family="Times,serif" font-size="13.00">Date: Feb 05 2015 &#45; 02:14</text>
<text text-anchor="start" x="331" y="-35.6" font-family="Times,serif" font-size="13.00">Migration version: 20150205015454</text>
<text text-anchor="start" x="331" y="-21.6" font-family="Times,serif" font-size="13.00">Generated by RailRoady 1.3.0</text>
<text text-anchor="start" x="331" y="-7.6" font-family="Times,serif" font-size="13.00">http://railroady.prestonlee.com</text>
</g>
<!-- UsersController -->
<g id="node2" class="node"><title>UsersController</title>
<path fill="none" stroke="black" d="M46,-34.5C46,-34.5 125,-34.5 125,-34.5 131,-34.5 137,-40.5 137,-46.5 137,-46.5 137,-160.5 137,-160.5 137,-166.5 131,-172.5 125,-172.5 125,-172.5 46,-172.5 46,-172.5 40,-172.5 34,-166.5 34,-160.5 34,-160.5 34,-46.5 34,-46.5 34,-40.5 40,-34.5 46,-34.5"/>
<text text-anchor="middle" x="85.5" y="-157.3" font-family="Times,serif" font-size="14.00">UsersController</text>
<polyline fill="none" stroke="black" points="34,-149.5 137,-149.5 "/>
<text text-anchor="start" x="42" y="-134.3" font-family="Times,serif" font-size="14.00">index</text>
<text text-anchor="start" x="42" y="-119.3" font-family="Times,serif" font-size="14.00">show</text>
<polyline fill="none" stroke="black" points="34,-111.5 137,-111.5 "/>
<polyline fill="none" stroke="black" points="34,-87.5 137,-87.5 "/>
<text text-anchor="start" x="42" y="-72.3" font-family="Times,serif" font-size="14.00">_layout</text>
<text text-anchor="start" x="42" y="-57.3" font-family="Times,serif" font-size="14.00">set_user</text>
<text text-anchor="start" x="42" y="-42.3" font-family="Times,serif" font-size="14.00">user_params</text>
</g>
<!-- ApplicationController -->
<g id="node3" class="node"><title>ApplicationController</title>
<path fill="none" stroke="black" d="M12,-442.5C12,-442.5 124,-442.5 124,-442.5 130,-442.5 136,-448.5 136,-454.5 136,-454.5 136,-524.5 136,-524.5 136,-530.5 130,-536.5 124,-536.5 124,-536.5 12,-536.5 12,-536.5 6,-536.5 -2.84217e-14,-530.5 -2.84217e-14,-524.5 -2.84217e-14,-524.5 -2.84217e-14,-454.5 -2.84217e-14,-454.5 -2.84217e-14,-448.5 6,-442.5 12,-442.5"/>
<text text-anchor="middle" x="68" y="-521.3" font-family="Times,serif" font-size="14.00">ApplicationController</text>
<polyline fill="none" stroke="black" points="-2.84217e-14,-513.5 136,-513.5 "/>
<polyline fill="none" stroke="black" points="-2.84217e-14,-489.5 136,-489.5 "/>
<polyline fill="none" stroke="black" points="-2.84217e-14,-465.5 136,-465.5 "/>
<text text-anchor="start" x="8" y="-450.3" font-family="Times,serif" font-size="14.00">_layout</text>
</g>
<!-- EditionsController -->
<g id="node4" class="node"><title>EditionsController</title>
<path fill="none" stroke="black" d="M420,-374.5C420,-374.5 513,-374.5 513,-374.5 519,-374.5 525,-380.5 525,-386.5 525,-386.5 525,-575.5 525,-575.5 525,-581.5 519,-587.5 513,-587.5 513,-587.5 420,-587.5 420,-587.5 414,-587.5 408,-581.5 408,-575.5 408,-575.5 408,-386.5 408,-386.5 408,-380.5 414,-374.5 420,-374.5"/>
<text text-anchor="middle" x="466.5" y="-572.3" font-family="Times,serif" font-size="14.00">EditionsController</text>
<polyline fill="none" stroke="black" points="408,-564.5 525,-564.5 "/>
<text text-anchor="start" x="416" y="-549.3" font-family="Times,serif" font-size="14.00">create</text>
<text text-anchor="start" x="416" y="-534.3" font-family="Times,serif" font-size="14.00">destroy</text>
<text text-anchor="start" x="416" y="-519.3" font-family="Times,serif" font-size="14.00">edit</text>
<text text-anchor="start" x="416" y="-504.3" font-family="Times,serif" font-size="14.00">index</text>
<text text-anchor="start" x="416" y="-489.3" font-family="Times,serif" font-size="14.00">new</text>
<text text-anchor="start" x="416" y="-474.3" font-family="Times,serif" font-size="14.00">show</text>
<text text-anchor="start" x="416" y="-459.3" font-family="Times,serif" font-size="14.00">update</text>
<polyline fill="none" stroke="black" points="408,-451.5 525,-451.5 "/>
<polyline fill="none" stroke="black" points="408,-427.5 525,-427.5 "/>
<text text-anchor="start" x="416" y="-412.3" font-family="Times,serif" font-size="14.00">_layout</text>
<text text-anchor="start" x="416" y="-397.3" font-family="Times,serif" font-size="14.00">edition_params</text>
<text text-anchor="start" x="416" y="-382.3" font-family="Times,serif" font-size="14.00">set_edition</text>
</g>
<!-- BadgesController -->
<g id="node5" class="node"><title>BadgesController</title>
<path fill="none" stroke="black" d="M29,-204.5C29,-204.5 117,-204.5 117,-204.5 123,-204.5 129,-210.5 129,-216.5 129,-216.5 129,-360.5 129,-360.5 129,-366.5 123,-372.5 117,-372.5 117,-372.5 29,-372.5 29,-372.5 23,-372.5 17,-366.5 17,-360.5 17,-360.5 17,-216.5 17,-216.5 17,-210.5 23,-204.5 29,-204.5"/>
<text text-anchor="middle" x="73" y="-357.3" font-family="Times,serif" font-size="14.00">BadgesController</text>
<polyline fill="none" stroke="black" points="17,-349.5 129,-349.5 "/>
<text text-anchor="start" x="25" y="-334.3" font-family="Times,serif" font-size="14.00">index</text>
<text text-anchor="start" x="25" y="-319.3" font-family="Times,serif" font-size="14.00">register</text>
<text text-anchor="start" x="25" y="-304.3" font-family="Times,serif" font-size="14.00">require</text>
<text text-anchor="start" x="25" y="-289.3" font-family="Times,serif" font-size="14.00">show</text>
<polyline fill="none" stroke="black" points="17,-281.5 129,-281.5 "/>
<polyline fill="none" stroke="black" points="17,-257.5 129,-257.5 "/>
<text text-anchor="start" x="25" y="-242.3" font-family="Times,serif" font-size="14.00">_layout</text>
<text text-anchor="start" x="25" y="-227.3" font-family="Times,serif" font-size="14.00">badge_params</text>
<text text-anchor="start" x="25" y="-212.3" font-family="Times,serif" font-size="14.00">set_badge</text>
</g>
<!-- ActivitiesController -->
<g id="node6" class="node"><title>ActivitiesController</title>
<path fill="none" stroke="black" d="M182,-85.5C182,-85.5 283,-85.5 283,-85.5 289,-85.5 295,-91.5 295,-97.5 295,-97.5 295,-286.5 295,-286.5 295,-292.5 289,-298.5 283,-298.5 283,-298.5 182,-298.5 182,-298.5 176,-298.5 170,-292.5 170,-286.5 170,-286.5 170,-97.5 170,-97.5 170,-91.5 176,-85.5 182,-85.5"/>
<text text-anchor="middle" x="232.5" y="-283.3" font-family="Times,serif" font-size="14.00">ActivitiesController</text>
<polyline fill="none" stroke="black" points="170,-275.5 295,-275.5 "/>
<text text-anchor="start" x="178" y="-260.3" font-family="Times,serif" font-size="14.00">create</text>
<text text-anchor="start" x="178" y="-245.3" font-family="Times,serif" font-size="14.00">destroy</text>
<text text-anchor="start" x="178" y="-230.3" font-family="Times,serif" font-size="14.00">edit</text>
<text text-anchor="start" x="178" y="-215.3" font-family="Times,serif" font-size="14.00">index</text>
<text text-anchor="start" x="178" y="-200.3" font-family="Times,serif" font-size="14.00">new</text>
<text text-anchor="start" x="178" y="-185.3" font-family="Times,serif" font-size="14.00">show</text>
<text text-anchor="start" x="178" y="-170.3" font-family="Times,serif" font-size="14.00">update</text>
<polyline fill="none" stroke="black" points="170,-162.5 295,-162.5 "/>
<polyline fill="none" stroke="black" points="170,-138.5 295,-138.5 "/>
<text text-anchor="start" x="178" y="-123.3" font-family="Times,serif" font-size="14.00">_layout</text>
<text text-anchor="start" x="178" y="-108.3" font-family="Times,serif" font-size="14.00">activity_params</text>
<text text-anchor="start" x="178" y="-93.3" font-family="Times,serif" font-size="14.00">set_activity</text>
</g>
<!-- CompaniesController -->
<g id="node7" class="node"><title>CompaniesController</title>
<path fill="none" stroke="black" d="M335,-119.5C335,-119.5 445,-119.5 445,-119.5 451,-119.5 457,-125.5 457,-131.5 457,-131.5 457,-320.5 457,-320.5 457,-326.5 451,-332.5 445,-332.5 445,-332.5 335,-332.5 335,-332.5 329,-332.5 323,-326.5 323,-320.5 323,-320.5 323,-131.5 323,-131.5 323,-125.5 329,-119.5 335,-119.5"/>
<text text-anchor="middle" x="390" y="-317.3" font-family="Times,serif" font-size="14.00">CompaniesController</text>
<polyline fill="none" stroke="black" points="323,-309.5 457,-309.5 "/>
<text text-anchor="start" x="331" y="-294.3" font-family="Times,serif" font-size="14.00">create</text>
<text text-anchor="start" x="331" y="-279.3" font-family="Times,serif" font-size="14.00">destroy</text>
<text text-anchor="start" x="331" y="-264.3" font-family="Times,serif" font-size="14.00">edit</text>
<text text-anchor="start" x="331" y="-249.3" font-family="Times,serif" font-size="14.00">index</text>
<text text-anchor="start" x="331" y="-234.3" font-family="Times,serif" font-size="14.00">new</text>
<text text-anchor="start" x="331" y="-219.3" font-family="Times,serif" font-size="14.00">show</text>
<text text-anchor="start" x="331" y="-204.3" font-family="Times,serif" font-size="14.00">update</text>
<polyline fill="none" stroke="black" points="323,-196.5 457,-196.5 "/>
<polyline fill="none" stroke="black" points="323,-172.5 457,-172.5 "/>
<text text-anchor="start" x="331" y="-157.3" font-family="Times,serif" font-size="14.00">_layout</text>
<text text-anchor="start" x="331" y="-142.3" font-family="Times,serif" font-size="14.00">company_params</text>
<text text-anchor="start" x="331" y="-127.3" font-family="Times,serif" font-size="14.00">set_company</text>
</g>
<!-- SpeakersController -->
<g id="node8" class="node"><title>SpeakersController</title>
<path fill="none" stroke="black" d="M182,-340.5C182,-340.5 279,-340.5 279,-340.5 285,-340.5 291,-346.5 291,-352.5 291,-352.5 291,-541.5 291,-541.5 291,-547.5 285,-553.5 279,-553.5 279,-553.5 182,-553.5 182,-553.5 176,-553.5 170,-547.5 170,-541.5 170,-541.5 170,-352.5 170,-352.5 170,-346.5 176,-340.5 182,-340.5"/>
<text text-anchor="middle" x="230.5" y="-538.3" font-family="Times,serif" font-size="14.00">SpeakersController</text>
<polyline fill="none" stroke="black" points="170,-530.5 291,-530.5 "/>
<text text-anchor="start" x="178" y="-515.3" font-family="Times,serif" font-size="14.00">create</text>
<text text-anchor="start" x="178" y="-500.3" font-family="Times,serif" font-size="14.00">destroy</text>
<text text-anchor="start" x="178" y="-485.3" font-family="Times,serif" font-size="14.00">edit</text>
<text text-anchor="start" x="178" y="-470.3" font-family="Times,serif" font-size="14.00">index</text>
<text text-anchor="start" x="178" y="-455.3" font-family="Times,serif" font-size="14.00">new</text>
<text text-anchor="start" x="178" y="-440.3" font-family="Times,serif" font-size="14.00">show</text>
<text text-anchor="start" x="178" y="-425.3" font-family="Times,serif" font-size="14.00">update</text>
<polyline fill="none" stroke="black" points="170,-417.5 291,-417.5 "/>
<polyline fill="none" stroke="black" points="170,-393.5 291,-393.5 "/>
<text text-anchor="start" x="178" y="-378.3" font-family="Times,serif" font-size="14.00">_layout</text>
<text text-anchor="start" x="178" y="-363.3" font-family="Times,serif" font-size="14.00">set_speaker</text>
<text text-anchor="start" x="178" y="-348.3" font-family="Times,serif" font-size="14.00">speaker_params</text>
</g>
</g>
</svg>
