<?xml version="1.0" encoding="UTF-8" standalone="no"?>
<!DOCTYPE svg PUBLIC "-//W3C//DTD SVG 1.1//EN"
 "http://www.w3.org/Graphics/SVG/1.1/DTD/svg11.dtd">
<!-- Generated by graphviz version 2.36.0 (20140111.2315)
 -->
<!-- Title: controllers_diagram Pages: 1 -->
<svg width="670pt" height="600pt"
 viewBox="0.00 0.00 670.00 600.00" xmlns="http://www.w3.org/2000/svg" xmlns:xlink="http://www.w3.org/1999/xlink">
<g id="graph0" class="graph" transform="scale(1 1) rotate(0) translate(4 596)">
<title>controllers_diagram</title>
<polygon fill="white" stroke="none" points="-4,4 -4,-596 666,-596 666,4 -4,4"/>
<!-- _diagram_info -->
<g id="node1" class="node"><title>_diagram_info</title>
<text text-anchor="start" x="26" y="-81.6" font-family="Times,serif" font-size="13.00">Controllers diagram</text>
<text text-anchor="start" x="26" y="-67.6" font-family="Times,serif" font-size="13.00">Date: Feb 12 2015 &#45; 19:26</text>
<text text-anchor="start" x="26" y="-53.6" font-family="Times,serif" font-size="13.00">Migration version: 20150212182836</text>
<text text-anchor="start" x="26" y="-39.6" font-family="Times,serif" font-size="13.00">Generated by RailRoady 1.3.0</text>
<text text-anchor="start" x="26" y="-25.6" font-family="Times,serif" font-size="13.00">http://railroady.prestonlee.com</text>
</g>
<!-- ApplicationController -->
<g id="node2" class="node"><title>ApplicationController</title>
<path fill="none" stroke="black" d="M480,-198.5C480,-198.5 650,-198.5 650,-198.5 656,-198.5 662,-204.5 662,-210.5 662,-210.5 662,-279.5 662,-279.5 662,-285.5 656,-291.5 650,-291.5 650,-291.5 480,-291.5 480,-291.5 474,-291.5 468,-285.5 468,-279.5 468,-279.5 468,-210.5 468,-210.5 468,-204.5 474,-198.5 480,-198.5"/>
<text text-anchor="middle" x="565" y="-276.3" font-family="Times,serif" font-size="14.00">ApplicationController</text>
<polyline fill="none" stroke="black" points="468,-268.5 662,-268.5 "/>
<polyline fill="none" stroke="black" points="468,-244.5 662,-244.5 "/>
<text text-anchor="start" x="476" y="-229.3" font-family="Times,serif" font-size="14.00">configure_permitted_parameters</text>
<polyline fill="none" stroke="black" points="468,-221.5 662,-221.5 "/>
<text text-anchor="start" x="476" y="-206.3" font-family="Times,serif" font-size="14.00">_layout</text>
</g>
<!-- EditionsController -->
<g id="node3" class="node"><title>EditionsController</title>
<path fill="none" stroke="black" d="M336,-144.5C336,-144.5 429,-144.5 429,-144.5 435,-144.5 441,-150.5 441,-156.5 441,-156.5 441,-345.5 441,-345.5 441,-351.5 435,-357.5 429,-357.5 429,-357.5 336,-357.5 336,-357.5 330,-357.5 324,-351.5 324,-345.5 324,-345.5 324,-156.5 324,-156.5 324,-150.5 330,-144.5 336,-144.5"/>
<text text-anchor="middle" x="382.5" y="-342.3" font-family="Times,serif" font-size="14.00">EditionsController</text>
<polyline fill="none" stroke="black" points="324,-334.5 441,-334.5 "/>
<text text-anchor="start" x="332" y="-319.3" font-family="Times,serif" font-size="14.00">create</text>
<text text-anchor="start" x="332" y="-304.3" font-family="Times,serif" font-size="14.00">destroy</text>
<text text-anchor="start" x="332" y="-289.3" font-family="Times,serif" font-size="14.00">edit</text>
<text text-anchor="start" x="332" y="-274.3" font-family="Times,serif" font-size="14.00">index</text>
<text text-anchor="start" x="332" y="-259.3" font-family="Times,serif" font-size="14.00">new</text>
<text text-anchor="start" x="332" y="-244.3" font-family="Times,serif" font-size="14.00">show</text>
<text text-anchor="start" x="332" y="-229.3" font-family="Times,serif" font-size="14.00">update</text>
<polyline fill="none" stroke="black" points="324,-221.5 441,-221.5 "/>
<polyline fill="none" stroke="black" points="324,-197.5 441,-197.5 "/>
<text text-anchor="start" x="332" y="-182.3" font-family="Times,serif" font-size="14.00">_layout</text>
<text text-anchor="start" x="332" y="-167.3" font-family="Times,serif" font-size="14.00">edition_params</text>
<text text-anchor="start" x="332" y="-152.3" font-family="Times,serif" font-size="14.00">set_edition</text>
</g>
<!-- BadgesController -->
<g id="node4" class="node"><title>BadgesController</title>
<path fill="none" stroke="black" d="M408,-396.5C408,-396.5 496,-396.5 496,-396.5 502,-396.5 508,-402.5 508,-408.5 508,-408.5 508,-567.5 508,-567.5 508,-573.5 502,-579.5 496,-579.5 496,-579.5 408,-579.5 408,-579.5 402,-579.5 396,-573.5 396,-567.5 396,-567.5 396,-408.5 396,-408.5 396,-402.5 402,-396.5 408,-396.5"/>
<text text-anchor="middle" x="452" y="-564.3" font-family="Times,serif" font-size="14.00">BadgesController</text>
<polyline fill="none" stroke="black" points="396,-556.5 508,-556.5 "/>
<text text-anchor="start" x="404" y="-541.3" font-family="Times,serif" font-size="14.00">index</text>
<text text-anchor="start" x="404" y="-526.3" font-family="Times,serif" font-size="14.00">redeem</text>
<text text-anchor="start" x="404" y="-511.3" font-family="Times,serif" font-size="14.00">require</text>
<text text-anchor="start" x="404" y="-496.3" font-family="Times,serif" font-size="14.00">show</text>
<polyline fill="none" stroke="black" points="396,-488.5 508,-488.5 "/>
<polyline fill="none" stroke="black" points="396,-464.5 508,-464.5 "/>
<text text-anchor="start" x="404" y="-449.3" font-family="Times,serif" font-size="14.00">_layout</text>
<text text-anchor="start" x="404" y="-434.3" font-family="Times,serif" font-size="14.00">badge_params</text>
<text text-anchor="start" x="404" y="-419.3" font-family="Times,serif" font-size="14.00">set_badge</text>
<text text-anchor="start" x="404" y="-404.3" font-family="Times,serif" font-size="14.00">set_edition</text>
</g>
<!-- ActivitiesController -->
<g id="node5" class="node"><title>ActivitiesController</title>
<path fill="none" stroke="black" d="M12,-234.5C12,-234.5 113,-234.5 113,-234.5 119,-234.5 125,-240.5 125,-246.5 125,-246.5 125,-405.5 125,-405.5 125,-411.5 119,-417.5 113,-417.5 113,-417.5 12,-417.5 12,-417.5 6,-417.5 0,-411.5 0,-405.5 0,-405.5 0,-246.5 0,-246.5 0,-240.5 6,-234.5 12,-234.5"/>
<text text-anchor="middle" x="62.5" y="-402.3" font-family="Times,serif" font-size="14.00">ActivitiesController</text>
<polyline fill="none" stroke="black" points="0,-394.5 125,-394.5 "/>
<text text-anchor="start" x="8" y="-379.3" font-family="Times,serif" font-size="14.00">deregister</text>
<text text-anchor="start" x="8" y="-364.3" font-family="Times,serif" font-size="14.00">index</text>
<text text-anchor="start" x="8" y="-349.3" font-family="Times,serif" font-size="14.00">register</text>
<text text-anchor="start" x="8" y="-334.3" font-family="Times,serif" font-size="14.00">show</text>
<polyline fill="none" stroke="black" points="0,-326.5 125,-326.5 "/>
<polyline fill="none" stroke="black" points="0,-302.5 125,-302.5 "/>
<text text-anchor="start" x="8" y="-287.3" font-family="Times,serif" font-size="14.00">_layout</text>
<text text-anchor="start" x="8" y="-272.3" font-family="Times,serif" font-size="14.00">activity_params</text>
<text text-anchor="start" x="8" y="-257.3" font-family="Times,serif" font-size="14.00">set_activity</text>
<text text-anchor="start" x="8" y="-242.3" font-family="Times,serif" font-size="14.00">set_edition</text>
</g>
<!-- CompaniesController -->
<g id="node6" class="node"><title>CompaniesController</title>
<path fill="none" stroke="black" d="M174,-126.5C174,-126.5 284,-126.5 284,-126.5 290,-126.5 296,-132.5 296,-138.5 296,-138.5 296,-327.5 296,-327.5 296,-333.5 290,-339.5 284,-339.5 284,-339.5 174,-339.5 174,-339.5 168,-339.5 162,-333.5 162,-327.5 162,-327.5 162,-138.5 162,-138.5 162,-132.5 168,-126.5 174,-126.5"/>
<text text-anchor="middle" x="229" y="-324.3" font-family="Times,serif" font-size="14.00">CompaniesController</text>
<polyline fill="none" stroke="black" points="162,-316.5 296,-316.5 "/>
<text text-anchor="start" x="170" y="-301.3" font-family="Times,serif" font-size="14.00">create</text>
<text text-anchor="start" x="170" y="-286.3" font-family="Times,serif" font-size="14.00">destroy</text>
<text text-anchor="start" x="170" y="-271.3" font-family="Times,serif" font-size="14.00">edit</text>
<text text-anchor="start" x="170" y="-256.3" font-family="Times,serif" font-size="14.00">index</text>
<text text-anchor="start" x="170" y="-241.3" font-family="Times,serif" font-size="14.00">new</text>
<text text-anchor="start" x="170" y="-226.3" font-family="Times,serif" font-size="14.00">show</text>
<text text-anchor="start" x="170" y="-211.3" font-family="Times,serif" font-size="14.00">update</text>
<polyline fill="none" stroke="black" points="162,-203.5 296,-203.5 "/>
<polyline fill="none" stroke="black" points="162,-179.5 296,-179.5 "/>
<text text-anchor="start" x="170" y="-164.3" font-family="Times,serif" font-size="14.00">_layout</text>
<text text-anchor="start" x="170" y="-149.3" font-family="Times,serif" font-size="14.00">company_params</text>
<text text-anchor="start" x="170" y="-134.3" font-family="Times,serif" font-size="14.00">set_company</text>
</g>
<!-- ParticipantsController -->
<g id="node7" class="node"><title>ParticipantsController</title>
<path fill="none" stroke="black" d="M480,-0.5C480,-0.5 592,-0.5 592,-0.5 598,-0.5 604,-6.5 604,-12.5 604,-12.5 604,-156.5 604,-156.5 604,-162.5 598,-168.5 592,-168.5 592,-168.5 480,-168.5 480,-168.5 474,-168.5 468,-162.5 468,-156.5 468,-156.5 468,-12.5 468,-12.5 468,-6.5 474,-0.5 480,-0.5"/>
<text text-anchor="middle" x="536" y="-153.3" font-family="Times,serif" font-size="14.00">ParticipantsController</text>
<polyline fill="none" stroke="black" points="468,-145.5 604,-145.5 "/>
<text text-anchor="start" x="476" y="-130.3" font-family="Times,serif" font-size="14.00">find_by_email</text>
<text text-anchor="start" x="476" y="-115.3" font-family="Times,serif" font-size="14.00">index</text>
<text text-anchor="start" x="476" y="-100.3" font-family="Times,serif" font-size="14.00">show</text>
<polyline fill="none" stroke="black" points="468,-92.5 604,-92.5 "/>
<polyline fill="none" stroke="black" points="468,-68.5 604,-68.5 "/>
<text text-anchor="start" x="476" y="-53.3" font-family="Times,serif" font-size="14.00">_layout</text>
<text text-anchor="start" x="476" y="-38.3" font-family="Times,serif" font-size="14.00">set_edition</text>
<text text-anchor="start" x="476" y="-23.3" font-family="Times,serif" font-size="14.00">set_participant</text>
<text text-anchor="start" x="476" y="-8.3" font-family="Times,serif" font-size="14.00">user_params</text>
</g>
<!-- SpeakersController -->
<g id="node8" class="node"><title>SpeakersController</title>
<path fill="none" stroke="black" d="M174,-378.5C174,-378.5 271,-378.5 271,-378.5 277,-378.5 283,-384.5 283,-390.5 283,-390.5 283,-579.5 283,-579.5 283,-585.5 277,-591.5 271,-591.5 271,-591.5 174,-591.5 174,-591.5 168,-591.5 162,-585.5 162,-579.5 162,-579.5 162,-390.5 162,-390.5 162,-384.5 168,-378.5 174,-378.5"/>
<text text-anchor="middle" x="222.5" y="-576.3" font-family="Times,serif" font-size="14.00">SpeakersController</text>
<polyline fill="none" stroke="black" points="162,-568.5 283,-568.5 "/>
<text text-anchor="start" x="170" y="-553.3" font-family="Times,serif" font-size="14.00">create</text>
<text text-anchor="start" x="170" y="-538.3" font-family="Times,serif" font-size="14.00">destroy</text>
<text text-anchor="start" x="170" y="-523.3" font-family="Times,serif" font-size="14.00">edit</text>
<text text-anchor="start" x="170" y="-508.3" font-family="Times,serif" font-size="14.00">index</text>
<text text-anchor="start" x="170" y="-493.3" font-family="Times,serif" font-size="14.00">new</text>
<text text-anchor="start" x="170" y="-478.3" font-family="Times,serif" font-size="14.00">show</text>
<text text-anchor="start" x="170" y="-463.3" font-family="Times,serif" font-size="14.00">update</text>
<polyline fill="none" stroke="black" points="162,-455.5 283,-455.5 "/>
<polyline fill="none" stroke="black" points="162,-431.5 283,-431.5 "/>
<text text-anchor="start" x="170" y="-416.3" font-family="Times,serif" font-size="14.00">_layout</text>
<text text-anchor="start" x="170" y="-401.3" font-family="Times,serif" font-size="14.00">set_speaker</text>
<text text-anchor="start" x="170" y="-386.3" font-family="Times,serif" font-size="14.00">speaker_params</text>
</g>
</g>
</svg>
