<?xml version="1.0" encoding="UTF-8" standalone="no"?>
<!DOCTYPE svg PUBLIC "-//W3C//DTD SVG 1.1//EN"
 "http://www.w3.org/Graphics/SVG/1.1/DTD/svg11.dtd">
<!-- Generated by graphviz version 2.36.0 (20140111.2315)
 -->
<!-- Title: models_diagram Pages: 1 -->
<svg width="1153pt" height="302pt"
 viewBox="0.00 0.00 1153.00 302.00" xmlns="http://www.w3.org/2000/svg" xmlns:xlink="http://www.w3.org/1999/xlink">
<g id="graph0" class="graph" transform="scale(1 1) rotate(0) translate(4 298)">
<title>models_diagram</title>
<polygon fill="white" stroke="none" points="-4,4 -4,-298 1149,-298 1149,4 -4,4"/>
<!-- _diagram_info -->
<g id="node1" class="node"><title>_diagram_info</title>
<text text-anchor="start" x="7" y="-279.6" font-family="Times,serif" font-size="13.00">Models diagram</text>
<text text-anchor="start" x="7" y="-265.6" font-family="Times,serif" font-size="13.00">Date: Feb 12 2015 &#45; 19:26</text>
<text text-anchor="start" x="7" y="-251.6" font-family="Times,serif" font-size="13.00">Migration version: 20150212182836</text>
<text text-anchor="start" x="7" y="-237.6" font-family="Times,serif" font-size="13.00">Generated by RailRoady 1.3.0</text>
<text text-anchor="start" x="7" y="-223.6" font-family="Times,serif" font-size="13.00">http://railroady.prestonlee.com</text>
</g>
<!-- Speaker -->
<g id="node2" class="node"><title>Speaker</title>
<ellipse fill="none" stroke="black" cx="242" cy="-162" rx="38.4949" ry="18"/>
<text text-anchor="middle" x="242" y="-158.3" font-family="Times,serif" font-size="14.00">Speaker</text>
</g>
<!-- Edition -->
<g id="node12" class="node"><title>Edition</title>
<ellipse fill="none" stroke="black" cx="260" cy="-90" rx="36.096" ry="18"/>
<text text-anchor="middle" x="260" y="-86.3" font-family="Times,serif" font-size="14.00">Edition</text>
</g>
<!-- Speaker&#45;&gt;Edition -->
<g id="edge2" class="edge"><title>Speaker&#45;&gt;Edition</title>
<path fill="none" stroke="#736554" d="M248.868,-134.29C250.235,-128.975 251.672,-123.388 253.041,-118.061"/>
<polygon fill="#736554" stroke="#736554" points="248.848,-134.37 241.999,-142.934 247.603,-139.212 246.357,-144.055 246.357,-144.055 246.357,-144.055 247.603,-139.212 250.716,-145.176 248.848,-134.37 248.848,-134.37"/>
<polygon fill="#736554" stroke="#736554" points="253.067,-117.96 259.916,-109.396 254.313,-113.118 255.558,-108.275 255.558,-108.275 255.558,-108.275 254.313,-113.118 251.2,-107.155 253.067,-117.96 253.067,-117.96"/>
</g>
<!-- Activity -->
<g id="node14" class="node"><title>Activity</title>
<ellipse fill="none" stroke="black" cx="182" cy="-18" rx="39.4691" ry="18"/>
<text text-anchor="middle" x="182" y="-14.3" font-family="Times,serif" font-size="14.00">Activity</text>
</g>
<!-- Speaker&#45;&gt;Activity -->
<g id="edge1" class="edge"><title>Speaker&#45;&gt;Activity</title>
<path fill="none" stroke="#ace819" d="M227.992,-134.993C223.618,-126.489 218.916,-116.933 215,-108 205.943,-87.3385 197.136,-63.3246 190.902,-45.4518"/>
<polygon fill="#ace819" stroke="#ace819" points="228.098,-135.195 228.746,-146.142 230.416,-139.626 232.733,-144.057 232.733,-144.057 232.733,-144.057 230.416,-139.626 236.721,-141.971 228.098,-135.195 228.098,-135.195"/>
<polygon fill="#ace819" stroke="#ace819" points="190.89,-45.4171 191.886,-34.4965 189.261,-40.6899 187.632,-35.9627 187.632,-35.9627 187.632,-35.9627 189.261,-40.6899 183.377,-37.4288 190.89,-45.4171 190.89,-45.4171"/>
</g>
<!-- User -->
<g id="node3" class="node"><title>User</title>
<ellipse fill="none" stroke="black" cx="158" cy="-162" rx="26.949" ry="18"/>
<text text-anchor="middle" x="158" y="-158.3" font-family="Times,serif" font-size="14.00">User</text>
</g>
<!-- User&#45;&gt;Edition -->
<g id="edge4" class="edge"><title>User&#45;&gt;Edition</title>
<path fill="none" stroke="#928c02" d="M184.696,-142.679C198.874,-132.949 216.323,-120.974 230.853,-111.003"/>
<polygon fill="#928c02" stroke="#928c02" points="184.481,-142.827 173.689,-144.775 180.358,-145.656 176.236,-148.485 176.236,-148.485 176.236,-148.485 180.358,-145.656 178.782,-152.196 184.481,-142.827 184.481,-142.827"/>
<polygon fill="#928c02" stroke="#928c02" points="231.223,-110.749 242.014,-108.801 235.345,-107.92 239.468,-105.091 239.468,-105.091 239.468,-105.091 235.345,-107.92 236.922,-101.38 231.223,-110.749 231.223,-110.749"/>
</g>
<!-- User&#45;&gt;Activity -->
<g id="edge3" class="edge"><title>User&#45;&gt;Activity</title>
<path fill="none" stroke="#815107" d="M162.618,-133.679C166.876,-108.487 173.161,-71.2953 177.41,-46.1555"/>
<polygon fill="#815107" stroke="#815107" points="162.562,-134.011 156.458,-143.122 161.728,-138.941 160.895,-143.871 160.895,-143.871 160.895,-143.871 161.728,-138.941 165.332,-144.621 162.562,-134.011 162.562,-134.011"/>
<polygon fill="#815107" stroke="#815107" points="177.428,-46.0494 183.532,-36.9392 178.261,-41.1193 179.095,-36.1893 179.095,-36.1893 179.095,-36.1893 178.261,-41.1193 174.658,-35.4393 177.428,-46.0494 177.428,-46.0494"/>
</g>
<!-- ActivityType -->
<g id="node4" class="node"><title>ActivityType</title>
<polygon fill="none" stroke="black" stroke-dasharray="1,5" points="428.25,-273 339.75,-273 339.75,-237 428.25,-237 428.25,-273"/>
<text text-anchor="middle" x="384" y="-251.3" font-family="Times,serif" font-size="14.00">ActivityType</text>
</g>
<!-- PartnershipType -->
<g id="node5" class="node"><title>PartnershipType</title>
<polygon fill="none" stroke="black" stroke-dasharray="1,5" points="551.5,-273 446.5,-273 446.5,-237 551.5,-237 551.5,-273"/>
<text text-anchor="middle" x="499" y="-251.3" font-family="Times,serif" font-size="14.00">PartnershipType</text>
</g>
<!-- BadgeAcquisition -->
<g id="node6" class="node"><title>BadgeAcquisition</title>
<ellipse fill="none" stroke="black" cx="644" cy="-255" rx="74.1402" ry="18"/>
<text text-anchor="middle" x="644" y="-251.3" font-family="Times,serif" font-size="14.00">BadgeAcquisition</text>
</g>
<!-- Badge -->
<g id="node7" class="node"><title>Badge</title>
<ellipse fill="none" stroke="black" cx="273" cy="-18" rx="33.2209" ry="18"/>
<text text-anchor="middle" x="273" y="-14.3" font-family="Times,serif" font-size="14.00">Badge</text>
</g>
<!-- BadgeType -->
<g id="node8" class="node"><title>BadgeType</title>
<polygon fill="none" stroke="black" stroke-dasharray="1,5" points="815.25,-273 736.75,-273 736.75,-237 815.25,-237 815.25,-273"/>
<text text-anchor="middle" x="776" y="-251.3" font-family="Times,serif" font-size="14.00">BadgeType</text>
</g>
<!-- BadgeCodeStatus -->
<g id="node9" class="node"><title>BadgeCodeStatus</title>
<polygon fill="none" stroke="black" stroke-dasharray="1,5" points="946.25,-273 833.75,-273 833.75,-237 946.25,-237 946.25,-273"/>
<text text-anchor="middle" x="890" y="-251.3" font-family="Times,serif" font-size="14.00">BadgeCodeStatus</text>
</g>
<!-- Company -->
<g id="node10" class="node"><title>Company</title>
<ellipse fill="none" stroke="black" cx="276" cy="-255" rx="45.244" ry="18"/>
<text text-anchor="middle" x="276" y="-251.3" font-family="Times,serif" font-size="14.00">Company</text>
</g>
<!-- Company&#45;&gt;Speaker -->
<g id="edge5" class="edge"><title>Company&#45;&gt;Speaker</title>
<path fill="none" stroke="#387acd" d="M266.719,-229.159C262.123,-216.858 256.571,-201.999 251.895,-189.482"/>
<ellipse fill="none" stroke="#387acd" cx="268.205" cy="-233.137" rx="4.00001" ry="4.00001"/>
<polygon fill="#387acd" stroke="#387acd" points="251.866,-189.407 252.582,-178.465 250.116,-184.723 248.366,-180.04 248.366,-180.04 248.366,-180.04 250.116,-184.723 244.151,-181.615 251.866,-189.407 251.866,-189.407"/>
</g>
<!-- Company&#45;&gt;Edition -->
<g id="edge6" class="edge"><title>Company&#45;&gt;Edition</title>
<path fill="none" stroke="#3da38f" d="M284.594,-227.12C290.504,-204.622 296.115,-171.825 289,-144 286.519,-134.299 281.856,-124.462 276.982,-115.941"/>
<polygon fill="#3da38f" stroke="#3da38f" points="284.529,-227.349 277.482,-235.751 283.171,-232.161 281.812,-236.973 281.812,-236.973 281.812,-236.973 283.171,-232.161 286.143,-238.196 284.529,-227.349 284.529,-227.349"/>
<polygon fill="#3da38f" stroke="#3da38f" points="276.908,-115.818 275.548,-104.937 274.307,-111.548 271.705,-107.278 271.705,-107.278 271.705,-107.278 274.307,-111.548 267.862,-109.62 276.908,-115.818 276.908,-115.818"/>
</g>
<!-- BadgesHandler -->
<g id="node11" class="node"><title>BadgesHandler</title>
<polygon fill="none" stroke="black" stroke-dasharray="1,5" points="1065,-273 965,-273 965,-237 1065,-237 1065,-273"/>
<text text-anchor="middle" x="1015" y="-251.3" font-family="Times,serif" font-size="14.00">BadgesHandler</text>
</g>
<!-- Edition&#45;&gt;Badge -->
<g id="edge8" class="edge"><title>Edition&#45;&gt;Badge</title>
<path fill="none" stroke="#a5f529" d="M264.645,-63.9868C265.711,-58.2493 266.849,-52.1211 267.931,-46.2929"/>
<ellipse fill="none" stroke="#a5f529" cx="263.877" cy="-68.1222" rx="4.00001" ry="4.00001"/>
<polygon fill="#a5f529" stroke="#a5f529" points="267.966,-46.1072 274.216,-37.097 268.879,-41.1912 269.792,-36.2753 269.792,-36.2753 269.792,-36.2753 268.879,-41.1912 265.367,-35.4536 267.966,-46.1072 267.966,-46.1072"/>
</g>
<!-- Edition&#45;&gt;Activity -->
<g id="edge7" class="edge"><title>Edition&#45;&gt;Activity</title>
<path fill="none" stroke="#42bb63" d="M236.998,-68.3576C227.439,-59.7783 216.327,-49.8067 206.605,-41.0812"/>
<ellipse fill="none" stroke="#42bb63" cx="240.098" cy="-71.1394" rx="4.00002" ry="4.00002"/>
<polygon fill="#42bb63" stroke="#42bb63" points="206.604,-41.0802 202.167,-31.0519 202.882,-37.7406 199.161,-34.401 199.161,-34.401 199.161,-34.401 202.882,-37.7406 196.156,-37.7501 206.604,-41.0802 206.604,-41.0802"/>
</g>
<!-- UserSex -->
<g id="node13" class="node"><title>UserSex</title>
<polygon fill="none" stroke="black" stroke-dasharray="1,5" points="1144.5,-273 1083.5,-273 1083.5,-237 1144.5,-237 1144.5,-273"/>
<text text-anchor="middle" x="1114" y="-251.3" font-family="Times,serif" font-size="14.00">UserSex</text>
</g>
</g>
</svg>
