<?xml version="1.0" encoding="UTF-8" standalone="no"?>
<!DOCTYPE svg PUBLIC "-//W3C//DTD SVG 1.1//EN"
 "http://www.w3.org/Graphics/SVG/1.1/DTD/svg11.dtd">
<!-- Generated by graphviz version 2.36.0 (20140111.2315)
 -->
<!-- Title: models_diagram Pages: 1 -->
<svg width="1195pt" height="1340pt"
 viewBox="0.00 0.00 1195.00 1340.00" xmlns="http://www.w3.org/2000/svg" xmlns:xlink="http://www.w3.org/1999/xlink">
<g id="graph0" class="graph" transform="scale(1 1) rotate(0) translate(4 1336)">
<title>models_diagram</title>
<polygon fill="white" stroke="none" points="-4,4 -4,-1336 1191,-1336 1191,4 -4,4"/>
<!-- _diagram_info -->
<g id="node1" class="node"><title>_diagram_info</title>
<text text-anchor="start" x="110" y="-1235.6" font-family="Times,serif" font-size="13.00">Models diagram</text>
<text text-anchor="start" x="110" y="-1221.6" font-family="Times,serif" font-size="13.00">Date: Feb 05 2015 &#45; 02:14</text>
<text text-anchor="start" x="110" y="-1207.6" font-family="Times,serif" font-size="13.00">Migration version: 20150205015454</text>
<text text-anchor="start" x="110" y="-1193.6" font-family="Times,serif" font-size="13.00">Generated by RailRoady 1.3.0</text>
<text text-anchor="start" x="110" y="-1179.6" font-family="Times,serif" font-size="13.00">http://railroady.prestonlee.com</text>
</g>
<!-- Speaker -->
<g id="node2" class="node"><title>Speaker</title>
<path fill="none" stroke="black" d="M289,-662.5C289,-662.5 435,-662.5 435,-662.5 441,-662.5 447,-668.5 447,-674.5 447,-674.5 447,-891.5 447,-891.5 447,-897.5 441,-903.5 435,-903.5 435,-903.5 289,-903.5 289,-903.5 283,-903.5 277,-897.5 277,-891.5 277,-891.5 277,-674.5 277,-674.5 277,-668.5 283,-662.5 289,-662.5"/>
<text text-anchor="middle" x="362" y="-888.3" font-family="Times,serif" font-size="14.00">Speaker</text>
<polyline fill="none" stroke="black" points="277,-880.5 447,-880.5 "/>
<text text-anchor="start" x="285" y="-865.3" font-family="Times,serif" font-size="14.00">id :integer</text>
<text text-anchor="start" x="285" y="-850.3" font-family="Times,serif" font-size="14.00">name :string</text>
<text text-anchor="start" x="285" y="-835.3" font-family="Times,serif" font-size="14.00">email :string</text>
<text text-anchor="start" x="285" y="-820.3" font-family="Times,serif" font-size="14.00">photo_url :string</text>
<text text-anchor="start" x="285" y="-805.3" font-family="Times,serif" font-size="14.00">biography :text</text>
<text text-anchor="start" x="285" y="-790.3" font-family="Times,serif" font-size="14.00">facebook_account :string</text>
<text text-anchor="start" x="285" y="-775.3" font-family="Times,serif" font-size="14.00">twitter_account :string</text>
<text text-anchor="start" x="285" y="-760.3" font-family="Times,serif" font-size="14.00">github_account :string</text>
<text text-anchor="start" x="285" y="-745.3" font-family="Times,serif" font-size="14.00">google_plus_account :string</text>
<text text-anchor="start" x="285" y="-730.3" font-family="Times,serif" font-size="14.00">created_at :datetime</text>
<text text-anchor="start" x="285" y="-715.3" font-family="Times,serif" font-size="14.00">updated_at :datetime</text>
<text text-anchor="start" x="285" y="-700.3" font-family="Times,serif" font-size="14.00">role :string</text>
<text text-anchor="start" x="285" y="-685.3" font-family="Times,serif" font-size="14.00">web_site :string</text>
<text text-anchor="start" x="285" y="-670.3" font-family="Times,serif" font-size="14.00">company_id :integer</text>
</g>
<!-- Edition -->
<g id="node10" class="node"><title>Edition</title>
<path fill="none" stroke="black" d="M300,-324.5C300,-324.5 424,-324.5 424,-324.5 430,-324.5 436,-330.5 436,-336.5 436,-336.5 436,-463.5 436,-463.5 436,-469.5 430,-475.5 424,-475.5 424,-475.5 300,-475.5 300,-475.5 294,-475.5 288,-469.5 288,-463.5 288,-463.5 288,-336.5 288,-336.5 288,-330.5 294,-324.5 300,-324.5"/>
<text text-anchor="middle" x="362" y="-460.3" font-family="Times,serif" font-size="14.00">Edition</text>
<polyline fill="none" stroke="black" points="288,-452.5 436,-452.5 "/>
<text text-anchor="start" x="296" y="-437.3" font-family="Times,serif" font-size="14.00">id :integer</text>
<text text-anchor="start" x="296" y="-422.3" font-family="Times,serif" font-size="14.00">name :string</text>
<text text-anchor="start" x="296" y="-407.3" font-family="Times,serif" font-size="14.00">edition_number :integer</text>
<text text-anchor="start" x="296" y="-392.3" font-family="Times,serif" font-size="14.00">description :text</text>
<text text-anchor="start" x="296" y="-377.3" font-family="Times,serif" font-size="14.00">begin_date :datetime</text>
<text text-anchor="start" x="296" y="-362.3" font-family="Times,serif" font-size="14.00">end_date :datetime</text>
<text text-anchor="start" x="296" y="-347.3" font-family="Times,serif" font-size="14.00">created_at :datetime</text>
<text text-anchor="start" x="296" y="-332.3" font-family="Times,serif" font-size="14.00">updated_at :datetime</text>
</g>
<!-- Speaker&#45;&gt;Edition -->
<g id="edge2" class="edge"><title>Speaker&#45;&gt;Edition</title>
<path fill="none" stroke="#4508a5" d="M362,-652.373C362,-597.428 362,-534.935 362,-486.004"/>
<polygon fill="#4508a5" stroke="#4508a5" points="362,-652.495 357.5,-662.495 362,-657.495 362,-662.495 362,-662.495 362,-662.495 362,-657.495 366.5,-662.495 362,-652.495 362,-652.495"/>
<polygon fill="#4508a5" stroke="#4508a5" points="362,-485.776 366.5,-475.776 362,-480.776 362,-475.776 362,-475.776 362,-475.776 362,-480.776 357.5,-475.776 362,-485.776 362,-485.776"/>
</g>
<!-- Activity -->
<g id="node12" class="node"><title>Activity</title>
<path fill="none" stroke="black" d="M135.5,-1C135.5,-1 298.5,-1 298.5,-1 304.5,-1 310.5,-7 310.5,-13 310.5,-13 310.5,-275 310.5,-275 310.5,-281 304.5,-287 298.5,-287 298.5,-287 135.5,-287 135.5,-287 129.5,-287 123.5,-281 123.5,-275 123.5,-275 123.5,-13 123.5,-13 123.5,-7 129.5,-1 135.5,-1"/>
<text text-anchor="middle" x="217" y="-271.8" font-family="Times,serif" font-size="14.00">Activity</text>
<polyline fill="none" stroke="black" points="123.5,-264 310.5,-264 "/>
<text text-anchor="start" x="131.5" y="-248.8" font-family="Times,serif" font-size="14.00">id :integer</text>
<text text-anchor="start" x="131.5" y="-233.8" font-family="Times,serif" font-size="14.00">name :string</text>
<text text-anchor="start" x="131.5" y="-218.8" font-family="Times,serif" font-size="14.00">description :text</text>
<text text-anchor="start" x="131.5" y="-203.8" font-family="Times,serif" font-size="14.00">begin_date :datetime</text>
<text text-anchor="start" x="131.5" y="-188.8" font-family="Times,serif" font-size="14.00">end_date :datetime</text>
<text text-anchor="start" x="131.5" y="-173.8" font-family="Times,serif" font-size="14.00">activity_type :integer</text>
<text text-anchor="start" x="131.5" y="-158.8" font-family="Times,serif" font-size="14.00">place :string</text>
<text text-anchor="start" x="131.5" y="-143.8" font-family="Times,serif" font-size="14.00">poster_photo_url :string</text>
<text text-anchor="start" x="131.5" y="-128.8" font-family="Times,serif" font-size="14.00">banner_photo_url :string</text>
<text text-anchor="start" x="131.5" y="-113.8" font-family="Times,serif" font-size="14.00">num_available_places :integer</text>
<text text-anchor="start" x="131.5" y="-98.8" font-family="Times,serif" font-size="14.00">registration_fee_in_euros :float</text>
<text text-anchor="start" x="131.5" y="-83.8" font-family="Times,serif" font-size="14.00">prizes :text</text>
<text text-anchor="start" x="131.5" y="-68.8" font-family="Times,serif" font-size="14.00">created_at :datetime</text>
<text text-anchor="start" x="131.5" y="-53.8" font-family="Times,serif" font-size="14.00">updated_at :datetime</text>
<text text-anchor="start" x="131.5" y="-38.8" font-family="Times,serif" font-size="14.00">is_free :boolean</text>
<text text-anchor="start" x="131.5" y="-23.8" font-family="Times,serif" font-size="14.00">has_prizes :boolean</text>
<text text-anchor="start" x="131.5" y="-8.8" font-family="Times,serif" font-size="14.00">edition_id :integer</text>
</g>
<!-- Speaker&#45;&gt;Activity -->
<g id="edge1" class="edge"><title>Speaker&#45;&gt;Activity</title>
<path fill="none" stroke="#aaef12" d="M324.454,-652.621C309.334,-598.315 292.353,-534.337 279,-476 265.71,-417.936 253.178,-353.662 242.906,-297.318"/>
<polygon fill="#aaef12" stroke="#aaef12" points="324.466,-652.663 322.822,-663.505 325.811,-657.479 327.156,-662.295 327.156,-662.295 327.156,-662.295 325.811,-657.479 331.49,-661.084 324.466,-652.663 324.466,-652.663"/>
<polygon fill="#aaef12" stroke="#aaef12" points="242.866,-297.097 245.508,-286.455 241.973,-292.178 241.08,-287.258 241.08,-287.258 241.08,-287.258 241.973,-292.178 236.653,-288.061 242.866,-297.097 242.866,-297.097"/>
</g>
<!-- User -->
<g id="node3" class="node"><title>User</title>
<path fill="none" stroke="black" d="M11.5,-512.5C11.5,-512.5 246.5,-512.5 246.5,-512.5 252.5,-512.5 258.5,-518.5 258.5,-524.5 258.5,-524.5 258.5,-1041.5 258.5,-1041.5 258.5,-1047.5 252.5,-1053.5 246.5,-1053.5 246.5,-1053.5 11.5,-1053.5 11.5,-1053.5 5.5,-1053.5 -0.5,-1047.5 -0.5,-1041.5 -0.5,-1041.5 -0.5,-524.5 -0.5,-524.5 -0.5,-518.5 5.5,-512.5 11.5,-512.5"/>
<text text-anchor="middle" x="129" y="-1038.3" font-family="Times,serif" font-size="14.00">User</text>
<polyline fill="none" stroke="black" points="-0.5,-1030.5 258.5,-1030.5 "/>
<text text-anchor="start" x="7.5" y="-1015.3" font-family="Times,serif" font-size="14.00">id :integer</text>
<text text-anchor="start" x="7.5" y="-1000.3" font-family="Times,serif" font-size="14.00">email :string</text>
<text text-anchor="start" x="7.5" y="-985.3" font-family="Times,serif" font-size="14.00">encrypted_password :string</text>
<text text-anchor="start" x="7.5" y="-970.3" font-family="Times,serif" font-size="14.00">reset_password_token :string</text>
<text text-anchor="start" x="7.5" y="-955.3" font-family="Times,serif" font-size="14.00">reset_password_sent_at :datetime</text>
<text text-anchor="start" x="7.5" y="-940.3" font-family="Times,serif" font-size="14.00">remember_created_at :datetime</text>
<text text-anchor="start" x="7.5" y="-925.3" font-family="Times,serif" font-size="14.00">sign_in_count :integer</text>
<text text-anchor="start" x="7.5" y="-910.3" font-family="Times,serif" font-size="14.00">current_sign_in_at :datetime</text>
<text text-anchor="start" x="7.5" y="-895.3" font-family="Times,serif" font-size="14.00">last_sign_in_at :datetime</text>
<text text-anchor="start" x="7.5" y="-880.3" font-family="Times,serif" font-size="14.00">current_sign_in_ip :string</text>
<text text-anchor="start" x="7.5" y="-865.3" font-family="Times,serif" font-size="14.00">last_sign_in_ip :string</text>
<text text-anchor="start" x="7.5" y="-850.3" font-family="Times,serif" font-size="14.00">created_at :datetime</text>
<text text-anchor="start" x="7.5" y="-835.3" font-family="Times,serif" font-size="14.00">updated_at :datetime</text>
<text text-anchor="start" x="7.5" y="-820.3" font-family="Times,serif" font-size="14.00">first_name :string</text>
<text text-anchor="start" x="7.5" y="-805.3" font-family="Times,serif" font-size="14.00">last_name :string</text>
<text text-anchor="start" x="7.5" y="-790.3" font-family="Times,serif" font-size="14.00">birthday :datetime</text>
<text text-anchor="start" x="7.5" y="-775.3" font-family="Times,serif" font-size="14.00">biography :text</text>
<text text-anchor="start" x="7.5" y="-760.3" font-family="Times,serif" font-size="14.00">is_student :boolean</text>
<text text-anchor="start" x="7.5" y="-745.3" font-family="Times,serif" font-size="14.00">is_student_at_minho_univ :boolean</text>
<text text-anchor="start" x="7.5" y="-730.3" font-family="Times,serif" font-size="14.00">is_inf_eng_student_at_minho_univ :boolean</text>
<text text-anchor="start" x="7.5" y="-715.3" font-family="Times,serif" font-size="14.00">is_cesium_associate :boolean</text>
<text text-anchor="start" x="7.5" y="-700.3" font-family="Times,serif" font-size="14.00">cesium_associate_number :integer</text>
<text text-anchor="start" x="7.5" y="-685.3" font-family="Times,serif" font-size="14.00">minho_univ_student_id :string</text>
<text text-anchor="start" x="7.5" y="-670.3" font-family="Times,serif" font-size="14.00">university :string</text>
<text text-anchor="start" x="7.5" y="-655.3" font-family="Times,serif" font-size="14.00">course :string</text>
<text text-anchor="start" x="7.5" y="-640.3" font-family="Times,serif" font-size="14.00">photo_url :string</text>
<text text-anchor="start" x="7.5" y="-625.3" font-family="Times,serif" font-size="14.00">facebook_account :string</text>
<text text-anchor="start" x="7.5" y="-610.3" font-family="Times,serif" font-size="14.00">twitter_account :string</text>
<text text-anchor="start" x="7.5" y="-595.3" font-family="Times,serif" font-size="14.00">github_account :string</text>
<text text-anchor="start" x="7.5" y="-580.3" font-family="Times,serif" font-size="14.00">google_plus_account :string</text>
<text text-anchor="start" x="7.5" y="-565.3" font-family="Times,serif" font-size="14.00">is_organizer :boolean</text>
<text text-anchor="start" x="7.5" y="-550.3" font-family="Times,serif" font-size="14.00">organizer_role :string</text>
<text text-anchor="start" x="7.5" y="-535.3" font-family="Times,serif" font-size="14.00">username :string</text>
<text text-anchor="start" x="7.5" y="-520.3" font-family="Times,serif" font-size="14.00">sex :integer</text>
</g>
<!-- User&#45;&gt;Edition -->
<g id="edge4" class="edge"><title>User&#45;&gt;Edition</title>
<path fill="none" stroke="#57f839" d="M264.172,-517.782C265.445,-515.842 266.721,-513.914 268,-512 274.294,-502.581 281.268,-493.055 288.491,-483.748"/>
<polygon fill="#57f839" stroke="#57f839" points="264.051,-517.969 254.838,-523.917 261.333,-522.166 258.616,-526.363 258.616,-526.363 258.616,-526.363 261.333,-522.166 262.393,-528.809 264.051,-517.969 264.051,-517.969"/>
<polygon fill="#57f839" stroke="#57f839" points="288.698,-483.485 298.425,-478.421 291.795,-479.559 294.892,-475.634 294.892,-475.634 294.892,-475.634 291.795,-479.559 291.359,-472.847 288.698,-483.485 288.698,-483.485"/>
</g>
<!-- User&#45;&gt;Activity -->
<g id="edge3" class="edge"><title>User&#45;&gt;Activity</title>
<path fill="none" stroke="#323a8e" d="M167.637,-502.323C177.364,-431.911 187.446,-358.93 195.943,-297.422"/>
<polygon fill="#323a8e" stroke="#323a8e" points="167.625,-502.41 161.798,-511.7 166.94,-507.363 166.256,-512.316 166.256,-512.316 166.256,-512.316 166.94,-507.363 170.714,-512.932 167.625,-502.41 167.625,-502.41"/>
<polygon fill="#323a8e" stroke="#323a8e" points="195.979,-297.164 201.805,-287.874 196.663,-292.211 197.347,-287.258 197.347,-287.258 197.347,-287.258 196.663,-292.211 192.89,-286.642 195.979,-297.164 195.979,-297.164"/>
</g>
<!-- ActivityType -->
<g id="node4" class="node"><title>ActivityType</title>
<polygon fill="none" stroke="black" stroke-dasharray="1,5" points="611.25,-1229 522.75,-1229 522.75,-1193 611.25,-1193 611.25,-1229"/>
<text text-anchor="middle" x="567" y="-1207.3" font-family="Times,serif" font-size="14.00">ActivityType</text>
</g>
<!-- PartnershipType -->
<g id="node5" class="node"><title>PartnershipType</title>
<polygon fill="none" stroke="black" stroke-dasharray="1,5" points="734.5,-1229 629.5,-1229 629.5,-1193 734.5,-1193 734.5,-1229"/>
<text text-anchor="middle" x="682" y="-1207.3" font-family="Times,serif" font-size="14.00">PartnershipType</text>
</g>
<!-- BadgeAcquisition -->
<g id="node6" class="node"><title>BadgeAcquisition</title>
<path fill="none" stroke="black" d="M765,-1128C765,-1128 929,-1128 929,-1128 935,-1128 941,-1134 941,-1140 941,-1140 941,-1282 941,-1282 941,-1288 935,-1294 929,-1294 929,-1294 765,-1294 765,-1294 759,-1294 753,-1288 753,-1282 753,-1282 753,-1140 753,-1140 753,-1134 759,-1128 765,-1128"/>
<text text-anchor="middle" x="847" y="-1278.8" font-family="Times,serif" font-size="14.00">BadgeAcquisition</text>
<polyline fill="none" stroke="black" points="753,-1271 941,-1271 "/>
<text text-anchor="start" x="761" y="-1255.8" font-family="Times,serif" font-size="14.00">id :integer</text>
<text text-anchor="start" x="761" y="-1240.8" font-family="Times,serif" font-size="14.00">badge_id :integer</text>
<text text-anchor="start" x="761" y="-1225.8" font-family="Times,serif" font-size="14.00">user_id :integer</text>
<text text-anchor="start" x="761" y="-1210.8" font-family="Times,serif" font-size="14.00">code :string</text>
<text text-anchor="start" x="761" y="-1195.8" font-family="Times,serif" font-size="14.00">status :integer</text>
<text text-anchor="start" x="761" y="-1180.8" font-family="Times,serif" font-size="14.00">code_expiration_date :datetime</text>
<text text-anchor="start" x="761" y="-1165.8" font-family="Times,serif" font-size="14.00">created_at :datetime</text>
<text text-anchor="start" x="761" y="-1150.8" font-family="Times,serif" font-size="14.00">updated_at :datetime</text>
<text text-anchor="start" x="761" y="-1135.8" font-family="Times,serif" font-size="14.00">acquisition_date :datetime</text>
</g>
<!-- Badge -->
<g id="node7" class="node"><title>Badge</title>
<path fill="none" stroke="black" d="M340.5,-46C340.5,-46 471.5,-46 471.5,-46 477.5,-46 483.5,-52 483.5,-58 483.5,-58 483.5,-230 483.5,-230 483.5,-236 477.5,-242 471.5,-242 471.5,-242 340.5,-242 340.5,-242 334.5,-242 328.5,-236 328.5,-230 328.5,-230 328.5,-58 328.5,-58 328.5,-52 334.5,-46 340.5,-46"/>
<text text-anchor="middle" x="406" y="-226.8" font-family="Times,serif" font-size="14.00">Badge</text>
<polyline fill="none" stroke="black" points="328.5,-219 483.5,-219 "/>
<text text-anchor="start" x="336.5" y="-203.8" font-family="Times,serif" font-size="14.00">id :integer</text>
<text text-anchor="start" x="336.5" y="-188.8" font-family="Times,serif" font-size="14.00">name :string</text>
<text text-anchor="start" x="336.5" y="-173.8" font-family="Times,serif" font-size="14.00">description :text</text>
<text text-anchor="start" x="336.5" y="-158.8" font-family="Times,serif" font-size="14.00">category :text</text>
<text text-anchor="start" x="336.5" y="-143.8" font-family="Times,serif" font-size="14.00">edition_id :integer</text>
<text text-anchor="start" x="336.5" y="-128.8" font-family="Times,serif" font-size="14.00">activity_id :integer</text>
<text text-anchor="start" x="336.5" y="-113.8" font-family="Times,serif" font-size="14.00">logo_url :string</text>
<text text-anchor="start" x="336.5" y="-98.8" font-family="Times,serif" font-size="14.00">created_at :datetime</text>
<text text-anchor="start" x="336.5" y="-83.8" font-family="Times,serif" font-size="14.00">updated_at :datetime</text>
<text text-anchor="start" x="336.5" y="-68.8" font-family="Times,serif" font-size="14.00">is_code_needed :boolean</text>
<text text-anchor="start" x="336.5" y="-53.8" font-family="Times,serif" font-size="14.00">expiration_date :datetime</text>
</g>
<!-- BadgeAcquisitionStatus -->
<g id="node8" class="node"><title>BadgeAcquisitionStatus</title>
<polygon fill="none" stroke="black" stroke-dasharray="1,5" points="1106.25,-1229 959.75,-1229 959.75,-1193 1106.25,-1193 1106.25,-1229"/>
<text text-anchor="middle" x="1033" y="-1207.3" font-family="Times,serif" font-size="14.00">BadgeAcquisitionStatus</text>
</g>
<!-- Company -->
<g id="node9" class="node"><title>Company</title>
<path fill="none" stroke="black" d="M346,-1090.5C346,-1090.5 492,-1090.5 492,-1090.5 498,-1090.5 504,-1096.5 504,-1102.5 504,-1102.5 504,-1319.5 504,-1319.5 504,-1325.5 498,-1331.5 492,-1331.5 492,-1331.5 346,-1331.5 346,-1331.5 340,-1331.5 334,-1325.5 334,-1319.5 334,-1319.5 334,-1102.5 334,-1102.5 334,-1096.5 340,-1090.5 346,-1090.5"/>
<text text-anchor="middle" x="419" y="-1316.3" font-family="Times,serif" font-size="14.00">Company</text>
<polyline fill="none" stroke="black" points="334,-1308.5 504,-1308.5 "/>
<text text-anchor="start" x="342" y="-1293.3" font-family="Times,serif" font-size="14.00">id :integer</text>
<text text-anchor="start" x="342" y="-1278.3" font-family="Times,serif" font-size="14.00">name :string</text>
<text text-anchor="start" x="342" y="-1263.3" font-family="Times,serif" font-size="14.00">description :text</text>
<text text-anchor="start" x="342" y="-1248.3" font-family="Times,serif" font-size="14.00">address :string</text>
<text text-anchor="start" x="342" y="-1233.3" font-family="Times,serif" font-size="14.00">is_partner :boolean</text>
<text text-anchor="start" x="342" y="-1218.3" font-family="Times,serif" font-size="14.00">partnership_type :integer</text>
<text text-anchor="start" x="342" y="-1203.3" font-family="Times,serif" font-size="14.00">web_site :string</text>
<text text-anchor="start" x="342" y="-1188.3" font-family="Times,serif" font-size="14.00">facebook_account :string</text>
<text text-anchor="start" x="342" y="-1173.3" font-family="Times,serif" font-size="14.00">twitter_account :string</text>
<text text-anchor="start" x="342" y="-1158.3" font-family="Times,serif" font-size="14.00">github_account :string</text>
<text text-anchor="start" x="342" y="-1143.3" font-family="Times,serif" font-size="14.00">google_plus_account :string</text>
<text text-anchor="start" x="342" y="-1128.3" font-family="Times,serif" font-size="14.00">logo_url :string</text>
<text text-anchor="start" x="342" y="-1113.3" font-family="Times,serif" font-size="14.00">created_at :datetime</text>
<text text-anchor="start" x="342" y="-1098.3" font-family="Times,serif" font-size="14.00">updated_at :datetime</text>
</g>
<!-- Company&#45;&gt;Speaker -->
<g id="edge5" class="edge"><title>Company&#45;&gt;Speaker</title>
<path fill="none" stroke="#dfb650" d="M401.948,-1082.56C394.825,-1029.32 386.557,-967.534 379.398,-914.027"/>
<ellipse fill="none" stroke="#dfb650" cx="402.478" cy="-1086.52" rx="4.00001" ry="4.00001"/>
<polygon fill="#dfb650" stroke="#dfb650" points="379.354,-913.701 382.488,-903.192 378.691,-908.745 378.028,-903.789 378.028,-903.789 378.028,-903.789 378.691,-908.745 373.568,-904.386 379.354,-913.701 379.354,-913.701"/>
</g>
<!-- Company&#45;&gt;Edition -->
<g id="edge6" class="edge"><title>Company&#45;&gt;Edition</title>
<path fill="none" stroke="#937b75" d="M455.548,-1080.54C489.426,-936.899 525.095,-700.509 456,-512 452.34,-502.016 447.341,-492.313 441.543,-483.069"/>
<polygon fill="#937b75" stroke="#937b75" points="455.541,-1080.57 448.84,-1089.25 454.379,-1085.43 453.217,-1090.3 453.217,-1090.3 453.217,-1090.3 454.379,-1085.43 457.593,-1091.34 455.541,-1080.57 455.541,-1080.57"/>
<polygon fill="#937b75" stroke="#937b75" points="441.531,-483.051 439.76,-472.229 438.769,-478.882 436.008,-474.714 436.008,-474.714 436.008,-474.714 438.769,-478.882 432.256,-477.199 441.531,-483.051 441.531,-483.051"/>
</g>
<!-- Edition&#45;&gt;Badge -->
<g id="edge8" class="edge"><title>Edition&#45;&gt;Badge</title>
<path fill="none" stroke="#8ceca5" d="M376.333,-316.262C379.859,-295.903 383.687,-273.81 387.383,-252.47"/>
<ellipse fill="none" stroke="#8ceca5" cx="375.646" cy="-320.224" rx="4.00001" ry="4.00001"/>
<polygon fill="#8ceca5" stroke="#8ceca5" points="387.421,-252.25 393.562,-243.165 388.275,-247.324 389.128,-242.397 389.128,-242.397 389.128,-242.397 388.275,-247.324 384.694,-241.629 387.421,-252.25 387.421,-252.25"/>
</g>
<!-- Edition&#45;&gt;Activity -->
<g id="edge7" class="edge"><title>Edition&#45;&gt;Activity</title>
<path fill="none" stroke="#9a3260" d="M315.159,-316.947C311.328,-310.237 307.388,-303.334 303.388,-296.329"/>
<ellipse fill="none" stroke="#9a3260" cx="317.296" cy="-320.692" rx="4.00002" ry="4.00002"/>
<polygon fill="#9a3260" stroke="#9a3260" points="303.253,-296.092 302.203,-285.176 300.774,-291.749 298.295,-287.407 298.295,-287.407 298.295,-287.407 300.774,-291.749 294.387,-289.638 303.253,-296.092 303.253,-296.092"/>
</g>
<!-- UserSex -->
<g id="node11" class="node"><title>UserSex</title>
<polygon fill="none" stroke="black" stroke-dasharray="1,5" points="1186.5,-1229 1125.5,-1229 1125.5,-1193 1186.5,-1193 1186.5,-1229"/>
<text text-anchor="middle" x="1156" y="-1207.3" font-family="Times,serif" font-size="14.00">UserSex</text>
</g>
</g>
</svg>
