<?xml version="1.0" encoding="UTF-8" standalone="no"?>
<!DOCTYPE svg PUBLIC "-//W3C//DTD SVG 1.1//EN"
 "http://www.w3.org/Graphics/SVG/1.1/DTD/svg11.dtd">
<!-- Generated by graphviz version 2.36.0 (20140111.2315)
 -->
<!-- Title: models_diagram Pages: 1 -->
<svg width="1376pt" height="1414pt"
 viewBox="0.00 0.00 1376.00 1414.00" xmlns="http://www.w3.org/2000/svg" xmlns:xlink="http://www.w3.org/1999/xlink">
<g id="graph0" class="graph" transform="scale(1 1) rotate(0) translate(4 1410)">
<title>models_diagram</title>
<polygon fill="white" stroke="none" points="-4,4 -4,-1410 1372,-1410 1372,4 -4,4"/>
<!-- _diagram_info -->
<g id="node1" class="node"><title>_diagram_info</title>
<text text-anchor="start" x="110" y="-1309.6" font-family="Times,serif" font-size="13.00">Models diagram</text>
<text text-anchor="start" x="110" y="-1295.6" font-family="Times,serif" font-size="13.00">Date: Feb 12 2015 &#45; 19:26</text>
<text text-anchor="start" x="110" y="-1281.6" font-family="Times,serif" font-size="13.00">Migration version: 20150212182836</text>
<text text-anchor="start" x="110" y="-1267.6" font-family="Times,serif" font-size="13.00">Generated by RailRoady 1.3.0</text>
<text text-anchor="start" x="110" y="-1253.6" font-family="Times,serif" font-size="13.00">http://railroady.prestonlee.com</text>
</g>
<!-- Speaker -->
<g id="node2" class="node"><title>Speaker</title>
<path fill="none" stroke="black" d="M289,-706.5C289,-706.5 435,-706.5 435,-706.5 441,-706.5 447,-712.5 447,-718.5 447,-718.5 447,-935.5 447,-935.5 447,-941.5 441,-947.5 435,-947.5 435,-947.5 289,-947.5 289,-947.5 283,-947.5 277,-941.5 277,-935.5 277,-935.5 277,-718.5 277,-718.5 277,-712.5 283,-706.5 289,-706.5"/>
<text text-anchor="middle" x="362" y="-932.3" font-family="Times,serif" font-size="14.00">Speaker</text>
<polyline fill="none" stroke="black" points="277,-924.5 447,-924.5 "/>
<text text-anchor="start" x="285" y="-909.3" font-family="Times,serif" font-size="14.00">id :integer</text>
<text text-anchor="start" x="285" y="-894.3" font-family="Times,serif" font-size="14.00">name :string</text>
<text text-anchor="start" x="285" y="-879.3" font-family="Times,serif" font-size="14.00">email :string</text>
<text text-anchor="start" x="285" y="-864.3" font-family="Times,serif" font-size="14.00">photo_url :string</text>
<text text-anchor="start" x="285" y="-849.3" font-family="Times,serif" font-size="14.00">biography :text</text>
<text text-anchor="start" x="285" y="-834.3" font-family="Times,serif" font-size="14.00">facebook_account :string</text>
<text text-anchor="start" x="285" y="-819.3" font-family="Times,serif" font-size="14.00">twitter_account :string</text>
<text text-anchor="start" x="285" y="-804.3" font-family="Times,serif" font-size="14.00">github_account :string</text>
<text text-anchor="start" x="285" y="-789.3" font-family="Times,serif" font-size="14.00">google_plus_account :string</text>
<text text-anchor="start" x="285" y="-774.3" font-family="Times,serif" font-size="14.00">created_at :datetime</text>
<text text-anchor="start" x="285" y="-759.3" font-family="Times,serif" font-size="14.00">updated_at :datetime</text>
<text text-anchor="start" x="285" y="-744.3" font-family="Times,serif" font-size="14.00">role :string</text>
<text text-anchor="start" x="285" y="-729.3" font-family="Times,serif" font-size="14.00">web_site :string</text>
<text text-anchor="start" x="285" y="-714.3" font-family="Times,serif" font-size="14.00">company_id :integer</text>
</g>
<!-- Edition -->
<g id="node12" class="node"><title>Edition</title>
<path fill="none" stroke="black" d="M300,-338.5C300,-338.5 424,-338.5 424,-338.5 430,-338.5 436,-344.5 436,-350.5 436,-350.5 436,-477.5 436,-477.5 436,-483.5 430,-489.5 424,-489.5 424,-489.5 300,-489.5 300,-489.5 294,-489.5 288,-483.5 288,-477.5 288,-477.5 288,-350.5 288,-350.5 288,-344.5 294,-338.5 300,-338.5"/>
<text text-anchor="middle" x="362" y="-474.3" font-family="Times,serif" font-size="14.00">Edition</text>
<polyline fill="none" stroke="black" points="288,-466.5 436,-466.5 "/>
<text text-anchor="start" x="296" y="-451.3" font-family="Times,serif" font-size="14.00">id :integer</text>
<text text-anchor="start" x="296" y="-436.3" font-family="Times,serif" font-size="14.00">name :string</text>
<text text-anchor="start" x="296" y="-421.3" font-family="Times,serif" font-size="14.00">edition_number :integer</text>
<text text-anchor="start" x="296" y="-406.3" font-family="Times,serif" font-size="14.00">description :text</text>
<text text-anchor="start" x="296" y="-391.3" font-family="Times,serif" font-size="14.00">begin_date :datetime</text>
<text text-anchor="start" x="296" y="-376.3" font-family="Times,serif" font-size="14.00">end_date :datetime</text>
<text text-anchor="start" x="296" y="-361.3" font-family="Times,serif" font-size="14.00">created_at :datetime</text>
<text text-anchor="start" x="296" y="-346.3" font-family="Times,serif" font-size="14.00">updated_at :datetime</text>
</g>
<!-- Speaker&#45;&gt;Edition -->
<g id="edge2" class="edge"><title>Speaker&#45;&gt;Edition</title>
<path fill="none" stroke="#bab4a9" d="M362,-695.925C362,-631.894 362,-556.52 362,-499.975"/>
<polygon fill="#bab4a9" stroke="#bab4a9" points="362,-696.293 357.5,-706.293 362,-701.293 362,-706.293 362,-706.293 362,-706.293 362,-701.293 366.5,-706.293 362,-696.293 362,-696.293"/>
<polygon fill="#bab4a9" stroke="#bab4a9" points="362,-499.642 366.5,-489.642 362,-494.642 362,-489.642 362,-489.642 362,-489.642 362,-494.642 357.5,-489.642 362,-499.642 362,-499.642"/>
</g>
<!-- Activity -->
<g id="node14" class="node"><title>Activity</title>
<path fill="none" stroke="black" d="M135.5,-0.5C135.5,-0.5 298.5,-0.5 298.5,-0.5 304.5,-0.5 310.5,-6.5 310.5,-12.5 310.5,-12.5 310.5,-289.5 310.5,-289.5 310.5,-295.5 304.5,-301.5 298.5,-301.5 298.5,-301.5 135.5,-301.5 135.5,-301.5 129.5,-301.5 123.5,-295.5 123.5,-289.5 123.5,-289.5 123.5,-12.5 123.5,-12.5 123.5,-6.5 129.5,-0.5 135.5,-0.5"/>
<text text-anchor="middle" x="217" y="-286.3" font-family="Times,serif" font-size="14.00">Activity</text>
<polyline fill="none" stroke="black" points="123.5,-278.5 310.5,-278.5 "/>
<text text-anchor="start" x="131.5" y="-263.3" font-family="Times,serif" font-size="14.00">id :integer</text>
<text text-anchor="start" x="131.5" y="-248.3" font-family="Times,serif" font-size="14.00">name :string</text>
<text text-anchor="start" x="131.5" y="-233.3" font-family="Times,serif" font-size="14.00">description :text</text>
<text text-anchor="start" x="131.5" y="-218.3" font-family="Times,serif" font-size="14.00">begin_date :datetime</text>
<text text-anchor="start" x="131.5" y="-203.3" font-family="Times,serif" font-size="14.00">end_date :datetime</text>
<text text-anchor="start" x="131.5" y="-188.3" font-family="Times,serif" font-size="14.00">activity_type :integer</text>
<text text-anchor="start" x="131.5" y="-173.3" font-family="Times,serif" font-size="14.00">place :string</text>
<text text-anchor="start" x="131.5" y="-158.3" font-family="Times,serif" font-size="14.00">poster_photo_url :string</text>
<text text-anchor="start" x="131.5" y="-143.3" font-family="Times,serif" font-size="14.00">banner_photo_url :string</text>
<text text-anchor="start" x="131.5" y="-128.3" font-family="Times,serif" font-size="14.00">num_available_places :integer</text>
<text text-anchor="start" x="131.5" y="-113.3" font-family="Times,serif" font-size="14.00">registration_fee_in_euros :float</text>
<text text-anchor="start" x="131.5" y="-98.3" font-family="Times,serif" font-size="14.00">prizes :text</text>
<text text-anchor="start" x="131.5" y="-83.3" font-family="Times,serif" font-size="14.00">created_at :datetime</text>
<text text-anchor="start" x="131.5" y="-68.3" font-family="Times,serif" font-size="14.00">updated_at :datetime</text>
<text text-anchor="start" x="131.5" y="-53.3" font-family="Times,serif" font-size="14.00">is_free :boolean</text>
<text text-anchor="start" x="131.5" y="-38.3" font-family="Times,serif" font-size="14.00">has_prizes :boolean</text>
<text text-anchor="start" x="131.5" y="-23.3" font-family="Times,serif" font-size="14.00">edition_id :integer</text>
<text text-anchor="start" x="131.5" y="-8.3" font-family="Times,serif" font-size="14.00">url_escaped_name :string</text>
</g>
<!-- Speaker&#45;&gt;Activity -->
<g id="edge1" class="edge"><title>Speaker&#45;&gt;Activity</title>
<path fill="none" stroke="#1ac2ea" d="M328.038,-696.412C312.232,-634.191 293.717,-558.447 279,-490 266.548,-432.088 254.428,-368.255 244.257,-311.804"/>
<polygon fill="#1ac2ea" stroke="#1ac2ea" points="328.082,-696.588 326.189,-707.389 329.316,-701.433 330.55,-706.278 330.55,-706.278 330.55,-706.278 329.316,-701.433 334.911,-705.168 328.082,-696.588 328.082,-696.588"/>
<polygon fill="#1ac2ea" stroke="#1ac2ea" points="244.213,-311.562 246.875,-300.924 243.33,-306.64 242.446,-301.719 242.446,-301.719 242.446,-301.719 243.33,-306.64 238.017,-302.514 244.213,-311.562 244.213,-311.562"/>
</g>
<!-- User -->
<g id="node3" class="node"><title>User</title>
<path fill="none" stroke="black" d="M11.5,-526.5C11.5,-526.5 246.5,-526.5 246.5,-526.5 252.5,-526.5 258.5,-532.5 258.5,-538.5 258.5,-538.5 258.5,-1115.5 258.5,-1115.5 258.5,-1121.5 252.5,-1127.5 246.5,-1127.5 246.5,-1127.5 11.5,-1127.5 11.5,-1127.5 5.5,-1127.5 -0.5,-1121.5 -0.5,-1115.5 -0.5,-1115.5 -0.5,-538.5 -0.5,-538.5 -0.5,-532.5 5.5,-526.5 11.5,-526.5"/>
<text text-anchor="middle" x="129" y="-1112.3" font-family="Times,serif" font-size="14.00">User</text>
<polyline fill="none" stroke="black" points="-0.5,-1104.5 258.5,-1104.5 "/>
<text text-anchor="start" x="7.5" y="-1089.3" font-family="Times,serif" font-size="14.00">id :integer</text>
<text text-anchor="start" x="7.5" y="-1074.3" font-family="Times,serif" font-size="14.00">email :string</text>
<text text-anchor="start" x="7.5" y="-1059.3" font-family="Times,serif" font-size="14.00">encrypted_password :string</text>
<text text-anchor="start" x="7.5" y="-1044.3" font-family="Times,serif" font-size="14.00">reset_password_token :string</text>
<text text-anchor="start" x="7.5" y="-1029.3" font-family="Times,serif" font-size="14.00">reset_password_sent_at :datetime</text>
<text text-anchor="start" x="7.5" y="-1014.3" font-family="Times,serif" font-size="14.00">remember_created_at :datetime</text>
<text text-anchor="start" x="7.5" y="-999.3" font-family="Times,serif" font-size="14.00">sign_in_count :integer</text>
<text text-anchor="start" x="7.5" y="-984.3" font-family="Times,serif" font-size="14.00">current_sign_in_at :datetime</text>
<text text-anchor="start" x="7.5" y="-969.3" font-family="Times,serif" font-size="14.00">last_sign_in_at :datetime</text>
<text text-anchor="start" x="7.5" y="-954.3" font-family="Times,serif" font-size="14.00">current_sign_in_ip :string</text>
<text text-anchor="start" x="7.5" y="-939.3" font-family="Times,serif" font-size="14.00">last_sign_in_ip :string</text>
<text text-anchor="start" x="7.5" y="-924.3" font-family="Times,serif" font-size="14.00">created_at :datetime</text>
<text text-anchor="start" x="7.5" y="-909.3" font-family="Times,serif" font-size="14.00">updated_at :datetime</text>
<text text-anchor="start" x="7.5" y="-894.3" font-family="Times,serif" font-size="14.00">first_name :string</text>
<text text-anchor="start" x="7.5" y="-879.3" font-family="Times,serif" font-size="14.00">last_name :string</text>
<text text-anchor="start" x="7.5" y="-864.3" font-family="Times,serif" font-size="14.00">birthday :datetime</text>
<text text-anchor="start" x="7.5" y="-849.3" font-family="Times,serif" font-size="14.00">biography :text</text>
<text text-anchor="start" x="7.5" y="-834.3" font-family="Times,serif" font-size="14.00">is_univ_student :boolean</text>
<text text-anchor="start" x="7.5" y="-819.3" font-family="Times,serif" font-size="14.00">is_student_at_minho_univ :boolean</text>
<text text-anchor="start" x="7.5" y="-804.3" font-family="Times,serif" font-size="14.00">is_inf_eng_student_at_minho_univ :boolean</text>
<text text-anchor="start" x="7.5" y="-789.3" font-family="Times,serif" font-size="14.00">is_cesium_associate :boolean</text>
<text text-anchor="start" x="7.5" y="-774.3" font-family="Times,serif" font-size="14.00">cesium_associate_number :integer</text>
<text text-anchor="start" x="7.5" y="-759.3" font-family="Times,serif" font-size="14.00">minho_univ_student_id :string</text>
<text text-anchor="start" x="7.5" y="-744.3" font-family="Times,serif" font-size="14.00">university :string</text>
<text text-anchor="start" x="7.5" y="-729.3" font-family="Times,serif" font-size="14.00">course :string</text>
<text text-anchor="start" x="7.5" y="-714.3" font-family="Times,serif" font-size="14.00">facebook_account :string</text>
<text text-anchor="start" x="7.5" y="-699.3" font-family="Times,serif" font-size="14.00">twitter_account :string</text>
<text text-anchor="start" x="7.5" y="-684.3" font-family="Times,serif" font-size="14.00">github_account :string</text>
<text text-anchor="start" x="7.5" y="-669.3" font-family="Times,serif" font-size="14.00">google_plus_account :string</text>
<text text-anchor="start" x="7.5" y="-654.3" font-family="Times,serif" font-size="14.00">is_organizer :boolean</text>
<text text-anchor="start" x="7.5" y="-639.3" font-family="Times,serif" font-size="14.00">organizer_role :string</text>
<text text-anchor="start" x="7.5" y="-624.3" font-family="Times,serif" font-size="14.00">username :string</text>
<text text-anchor="start" x="7.5" y="-609.3" font-family="Times,serif" font-size="14.00">sex :integer</text>
<text text-anchor="start" x="7.5" y="-594.3" font-family="Times,serif" font-size="14.00">avatar_file_name :string</text>
<text text-anchor="start" x="7.5" y="-579.3" font-family="Times,serif" font-size="14.00">avatar_content_type :string</text>
<text text-anchor="start" x="7.5" y="-564.3" font-family="Times,serif" font-size="14.00">avatar_file_size :integer</text>
<text text-anchor="start" x="7.5" y="-549.3" font-family="Times,serif" font-size="14.00">avatar_updated_at :datetime</text>
<text text-anchor="start" x="7.5" y="-534.3" font-family="Times,serif" font-size="14.00">linked_in_account :string</text>
</g>
<!-- User&#45;&gt;Edition -->
<g id="edge4" class="edge"><title>User&#45;&gt;Edition</title>
<path fill="none" stroke="#91157e" d="M263.862,-532.556C265.235,-530.355 266.615,-528.17 268,-526 274.044,-516.535 280.825,-507.008 287.904,-497.727"/>
<polygon fill="#91157e" stroke="#91157e" points="263.836,-532.597 254.763,-538.755 261.216,-536.856 258.595,-541.114 258.595,-541.114 258.595,-541.114 261.216,-536.856 262.428,-543.472 263.836,-532.597 263.836,-532.597"/>
<polygon fill="#91157e" stroke="#91157e" points="288.053,-497.536 297.744,-492.405 291.122,-493.589 294.191,-489.642 294.191,-489.642 294.191,-489.642 291.122,-493.589 290.639,-486.88 288.053,-497.536 288.053,-497.536"/>
</g>
<!-- User&#45;&gt;Activity -->
<g id="edge3" class="edge"><title>User&#45;&gt;Activity</title>
<path fill="none" stroke="#1bc612" d="M169.423,-516.397C178.664,-445.616 188.118,-373.213 196.138,-311.788"/>
<polygon fill="#1bc612" stroke="#1bc612" points="169.405,-516.533 163.648,-525.866 168.758,-521.491 168.111,-526.449 168.111,-526.449 168.111,-526.449 168.758,-521.491 172.573,-527.031 169.405,-516.533 169.405,-516.533"/>
<polygon fill="#1bc612" stroke="#1bc612" points="196.169,-311.549 201.925,-302.216 196.816,-306.591 197.463,-301.633 197.463,-301.633 197.463,-301.633 196.816,-306.591 193.001,-301.05 196.169,-311.549 196.169,-311.549"/>
</g>
<!-- ActivityType -->
<g id="node4" class="node"><title>ActivityType</title>
<polygon fill="none" stroke="black" stroke-dasharray="1,5" points="611.25,-1303 522.75,-1303 522.75,-1267 611.25,-1267 611.25,-1303"/>
<text text-anchor="middle" x="567" y="-1281.3" font-family="Times,serif" font-size="14.00">ActivityType</text>
</g>
<!-- PartnershipType -->
<g id="node5" class="node"><title>PartnershipType</title>
<polygon fill="none" stroke="black" stroke-dasharray="1,5" points="734.5,-1303 629.5,-1303 629.5,-1267 734.5,-1267 734.5,-1303"/>
<text text-anchor="middle" x="682" y="-1281.3" font-family="Times,serif" font-size="14.00">PartnershipType</text>
</g>
<!-- BadgeAcquisition -->
<g id="node6" class="node"><title>BadgeAcquisition</title>
<path fill="none" stroke="black" d="M765,-1202C765,-1202 929,-1202 929,-1202 935,-1202 941,-1208 941,-1214 941,-1214 941,-1356 941,-1356 941,-1362 935,-1368 929,-1368 929,-1368 765,-1368 765,-1368 759,-1368 753,-1362 753,-1356 753,-1356 753,-1214 753,-1214 753,-1208 759,-1202 765,-1202"/>
<text text-anchor="middle" x="847" y="-1352.8" font-family="Times,serif" font-size="14.00">BadgeAcquisition</text>
<polyline fill="none" stroke="black" points="753,-1345 941,-1345 "/>
<text text-anchor="start" x="761" y="-1329.8" font-family="Times,serif" font-size="14.00">id :integer</text>
<text text-anchor="start" x="761" y="-1314.8" font-family="Times,serif" font-size="14.00">badge_id :integer</text>
<text text-anchor="start" x="761" y="-1299.8" font-family="Times,serif" font-size="14.00">user_id :integer</text>
<text text-anchor="start" x="761" y="-1284.8" font-family="Times,serif" font-size="14.00">code :string</text>
<text text-anchor="start" x="761" y="-1269.8" font-family="Times,serif" font-size="14.00">status :integer</text>
<text text-anchor="start" x="761" y="-1254.8" font-family="Times,serif" font-size="14.00">code_expiration_date :datetime</text>
<text text-anchor="start" x="761" y="-1239.8" font-family="Times,serif" font-size="14.00">created_at :datetime</text>
<text text-anchor="start" x="761" y="-1224.8" font-family="Times,serif" font-size="14.00">updated_at :datetime</text>
<text text-anchor="start" x="761" y="-1209.8" font-family="Times,serif" font-size="14.00">acquisition_date :datetime</text>
</g>
<!-- Badge -->
<g id="node7" class="node"><title>Badge</title>
<path fill="none" stroke="black" d="M340.5,-38C340.5,-38 471.5,-38 471.5,-38 477.5,-38 483.5,-44 483.5,-50 483.5,-50 483.5,-252 483.5,-252 483.5,-258 477.5,-264 471.5,-264 471.5,-264 340.5,-264 340.5,-264 334.5,-264 328.5,-258 328.5,-252 328.5,-252 328.5,-50 328.5,-50 328.5,-44 334.5,-38 340.5,-38"/>
<text text-anchor="middle" x="406" y="-248.8" font-family="Times,serif" font-size="14.00">Badge</text>
<polyline fill="none" stroke="black" points="328.5,-241 483.5,-241 "/>
<text text-anchor="start" x="336.5" y="-225.8" font-family="Times,serif" font-size="14.00">id :integer</text>
<text text-anchor="start" x="336.5" y="-210.8" font-family="Times,serif" font-size="14.00">name :string</text>
<text text-anchor="start" x="336.5" y="-195.8" font-family="Times,serif" font-size="14.00">description :text</text>
<text text-anchor="start" x="336.5" y="-180.8" font-family="Times,serif" font-size="14.00">category :text</text>
<text text-anchor="start" x="336.5" y="-165.8" font-family="Times,serif" font-size="14.00">edition_id :integer</text>
<text text-anchor="start" x="336.5" y="-150.8" font-family="Times,serif" font-size="14.00">activity_id :integer</text>
<text text-anchor="start" x="336.5" y="-135.8" font-family="Times,serif" font-size="14.00">logo_url :string</text>
<text text-anchor="start" x="336.5" y="-120.8" font-family="Times,serif" font-size="14.00">created_at :datetime</text>
<text text-anchor="start" x="336.5" y="-105.8" font-family="Times,serif" font-size="14.00">updated_at :datetime</text>
<text text-anchor="start" x="336.5" y="-90.8" font-family="Times,serif" font-size="14.00">is_code_needed :boolean</text>
<text text-anchor="start" x="336.5" y="-75.8" font-family="Times,serif" font-size="14.00">expiration_date :datetime</text>
<text text-anchor="start" x="336.5" y="-60.8" font-family="Times,serif" font-size="14.00">codename :string</text>
<text text-anchor="start" x="336.5" y="-45.8" font-family="Times,serif" font-size="14.00">type :integer</text>
</g>
<!-- BadgeType -->
<g id="node8" class="node"><title>BadgeType</title>
<polygon fill="none" stroke="black" stroke-dasharray="1,5" points="1038.25,-1303 959.75,-1303 959.75,-1267 1038.25,-1267 1038.25,-1303"/>
<text text-anchor="middle" x="999" y="-1281.3" font-family="Times,serif" font-size="14.00">BadgeType</text>
</g>
<!-- BadgeCodeStatus -->
<g id="node9" class="node"><title>BadgeCodeStatus</title>
<polygon fill="none" stroke="black" stroke-dasharray="1,5" points="1169.25,-1303 1056.75,-1303 1056.75,-1267 1169.25,-1267 1169.25,-1303"/>
<text text-anchor="middle" x="1113" y="-1281.3" font-family="Times,serif" font-size="14.00">BadgeCodeStatus</text>
</g>
<!-- Company -->
<g id="node10" class="node"><title>Company</title>
<path fill="none" stroke="black" d="M346,-1164.5C346,-1164.5 492,-1164.5 492,-1164.5 498,-1164.5 504,-1170.5 504,-1176.5 504,-1176.5 504,-1393.5 504,-1393.5 504,-1399.5 498,-1405.5 492,-1405.5 492,-1405.5 346,-1405.5 346,-1405.5 340,-1405.5 334,-1399.5 334,-1393.5 334,-1393.5 334,-1176.5 334,-1176.5 334,-1170.5 340,-1164.5 346,-1164.5"/>
<text text-anchor="middle" x="419" y="-1390.3" font-family="Times,serif" font-size="14.00">Company</text>
<polyline fill="none" stroke="black" points="334,-1382.5 504,-1382.5 "/>
<text text-anchor="start" x="342" y="-1367.3" font-family="Times,serif" font-size="14.00">id :integer</text>
<text text-anchor="start" x="342" y="-1352.3" font-family="Times,serif" font-size="14.00">name :string</text>
<text text-anchor="start" x="342" y="-1337.3" font-family="Times,serif" font-size="14.00">description :text</text>
<text text-anchor="start" x="342" y="-1322.3" font-family="Times,serif" font-size="14.00">address :string</text>
<text text-anchor="start" x="342" y="-1307.3" font-family="Times,serif" font-size="14.00">is_partner :boolean</text>
<text text-anchor="start" x="342" y="-1292.3" font-family="Times,serif" font-size="14.00">partnership_type :integer</text>
<text text-anchor="start" x="342" y="-1277.3" font-family="Times,serif" font-size="14.00">web_site :string</text>
<text text-anchor="start" x="342" y="-1262.3" font-family="Times,serif" font-size="14.00">facebook_account :string</text>
<text text-anchor="start" x="342" y="-1247.3" font-family="Times,serif" font-size="14.00">twitter_account :string</text>
<text text-anchor="start" x="342" y="-1232.3" font-family="Times,serif" font-size="14.00">github_account :string</text>
<text text-anchor="start" x="342" y="-1217.3" font-family="Times,serif" font-size="14.00">google_plus_account :string</text>
<text text-anchor="start" x="342" y="-1202.3" font-family="Times,serif" font-size="14.00">logo_url :string</text>
<text text-anchor="start" x="342" y="-1187.3" font-family="Times,serif" font-size="14.00">created_at :datetime</text>
<text text-anchor="start" x="342" y="-1172.3" font-family="Times,serif" font-size="14.00">updated_at :datetime</text>
</g>
<!-- Company&#45;&gt;Speaker -->
<g id="edge5" class="edge"><title>Company&#45;&gt;Speaker</title>
<path fill="none" stroke="#cf674b" d="M403.022,-1156.18C395.281,-1094.25 386.002,-1020.01 378.228,-957.824"/>
<ellipse fill="none" stroke="#cf674b" cx="403.565" cy="-1160.52" rx="4.00001" ry="4.00001"/>
<polygon fill="#cf674b" stroke="#cf674b" points="378.185,-957.477 381.41,-946.996 377.564,-952.515 376.944,-947.554 376.944,-947.554 376.944,-947.554 377.564,-952.515 372.479,-948.112 378.185,-957.477 378.185,-957.477"/>
</g>
<!-- Company&#45;&gt;Edition -->
<g id="edge6" class="edge"><title>Company&#45;&gt;Edition</title>
<path fill="none" stroke="#ee993d" d="M455.203,-1154.42C491.763,-999.703 532.813,-735.564 456,-526 452.34,-516.016 447.341,-506.313 441.543,-497.069"/>
<polygon fill="#ee993d" stroke="#ee993d" points="455.13,-1154.72 448.426,-1163.4 453.967,-1159.59 452.803,-1164.45 452.803,-1164.45 452.803,-1164.45 453.967,-1159.59 457.179,-1165.5 455.13,-1154.72 455.13,-1154.72"/>
<polygon fill="#ee993d" stroke="#ee993d" points="441.531,-497.051 439.76,-486.229 438.769,-492.882 436.008,-488.714 436.008,-488.714 436.008,-488.714 438.769,-492.882 432.256,-491.199 441.531,-497.051 441.531,-497.051"/>
</g>
<!-- BadgesHandler -->
<g id="node11" class="node"><title>BadgesHandler</title>
<polygon fill="none" stroke="black" stroke-dasharray="1,5" points="1288,-1303 1188,-1303 1188,-1267 1288,-1267 1288,-1303"/>
<text text-anchor="middle" x="1238" y="-1281.3" font-family="Times,serif" font-size="14.00">BadgesHandler</text>
</g>
<!-- Edition&#45;&gt;Badge -->
<g id="edge8" class="edge"><title>Edition&#45;&gt;Badge</title>
<path fill="none" stroke="#4abeeb" d="M375.947,-330.271C378.957,-312.417 382.2,-293.178 385.403,-274.176"/>
<ellipse fill="none" stroke="#4abeeb" cx="375.274" cy="-334.264" rx="4.00001" ry="4.00001"/>
<polygon fill="#4abeeb" stroke="#4abeeb" points="385.411,-274.13 391.511,-265.017 386.242,-269.199 387.073,-264.269 387.073,-264.269 387.073,-264.269 386.242,-269.199 382.636,-263.521 385.411,-274.13 385.411,-274.13"/>
</g>
<!-- Edition&#45;&gt;Activity -->
<g id="edge7" class="edge"><title>Edition&#45;&gt;Activity</title>
<path fill="none" stroke="#f3336c" d="M316.475,-331.054C312.779,-324.402 308.974,-317.553 305.107,-310.593"/>
<ellipse fill="none" stroke="#f3336c" cx="318.506" cy="-334.711" rx="4.00002" ry="4.00002"/>
<polygon fill="#f3336c" stroke="#f3336c" points="305.036,-310.464 304.113,-299.537 302.607,-306.093 300.179,-301.723 300.179,-301.723 300.179,-301.723 302.607,-306.093 296.245,-303.908 305.036,-310.464 305.036,-310.464"/>
</g>
<!-- UserSex -->
<g id="node13" class="node"><title>UserSex</title>
<polygon fill="none" stroke="black" stroke-dasharray="1,5" points="1367.5,-1303 1306.5,-1303 1306.5,-1267 1367.5,-1267 1367.5,-1303"/>
<text text-anchor="middle" x="1337" y="-1281.3" font-family="Times,serif" font-size="14.00">UserSex</text>
</g>
</g>
</svg>
